%TF.GenerationSoftware,KiCad,Pcbnew,(6.0.11)*%
%TF.CreationDate,2024-01-05T21:36:46+00:00*%
%TF.ProjectId,LED-RESISTOR-TESTER,4c45442d-5245-4534-9953-544f522d5445,rev?*%
%TF.SameCoordinates,Original*%
%TF.FileFunction,Legend,Top*%
%TF.FilePolarity,Positive*%
%FSLAX46Y46*%
G04 Gerber Fmt 4.6, Leading zero omitted, Abs format (unit mm)*
G04 Created by KiCad (PCBNEW (6.0.11)) date 2024-01-05 21:36:46*
%MOMM*%
%LPD*%
G01*
G04 APERTURE LIST*
%ADD10C,0.300000*%
%ADD11C,0.500000*%
%ADD12C,0.200000*%
%ADD13C,0.120000*%
G04 APERTURE END LIST*
D10*
X200634761Y-102347619D02*
X200634761Y-103300000D01*
X198634761Y-103300000D01*
X199587142Y-101680952D02*
X199587142Y-101014285D01*
X200634761Y-100728571D02*
X200634761Y-101680952D01*
X198634761Y-101680952D01*
X198634761Y-100728571D01*
X200634761Y-99871428D02*
X198634761Y-99871428D01*
X198634761Y-99395238D01*
X198730000Y-99109523D01*
X198920476Y-98919047D01*
X199110952Y-98823809D01*
X199491904Y-98728571D01*
X199777619Y-98728571D01*
X200158571Y-98823809D01*
X200349047Y-98919047D01*
X200539523Y-99109523D01*
X200634761Y-99395238D01*
X200634761Y-99871428D01*
X198634761Y-96633333D02*
X198634761Y-95490476D01*
X200634761Y-96061904D02*
X198634761Y-96061904D01*
X200539523Y-94061904D02*
X200634761Y-94252380D01*
X200634761Y-94633333D01*
X200539523Y-94823809D01*
X200349047Y-94919047D01*
X199587142Y-94919047D01*
X199396666Y-94823809D01*
X199301428Y-94633333D01*
X199301428Y-94252380D01*
X199396666Y-94061904D01*
X199587142Y-93966666D01*
X199777619Y-93966666D01*
X199968095Y-94919047D01*
X200539523Y-93204761D02*
X200634761Y-93014285D01*
X200634761Y-92633333D01*
X200539523Y-92442857D01*
X200349047Y-92347619D01*
X200253809Y-92347619D01*
X200063333Y-92442857D01*
X199968095Y-92633333D01*
X199968095Y-92919047D01*
X199872857Y-93109523D01*
X199682380Y-93204761D01*
X199587142Y-93204761D01*
X199396666Y-93109523D01*
X199301428Y-92919047D01*
X199301428Y-92633333D01*
X199396666Y-92442857D01*
X199301428Y-91776190D02*
X199301428Y-91014285D01*
X198634761Y-91490476D02*
X200349047Y-91490476D01*
X200539523Y-91395238D01*
X200634761Y-91204761D01*
X200634761Y-91014285D01*
X200634761Y-90347619D02*
X199301428Y-90347619D01*
X198634761Y-90347619D02*
X198730000Y-90442857D01*
X198825238Y-90347619D01*
X198730000Y-90252380D01*
X198634761Y-90347619D01*
X198825238Y-90347619D01*
X199301428Y-89395238D02*
X200634761Y-89395238D01*
X199491904Y-89395238D02*
X199396666Y-89300000D01*
X199301428Y-89109523D01*
X199301428Y-88823809D01*
X199396666Y-88633333D01*
X199587142Y-88538095D01*
X200634761Y-88538095D01*
X199301428Y-86728571D02*
X200920476Y-86728571D01*
X201110952Y-86823809D01*
X201206190Y-86919047D01*
X201301428Y-87109523D01*
X201301428Y-87395238D01*
X201206190Y-87585714D01*
X200539523Y-86728571D02*
X200634761Y-86919047D01*
X200634761Y-87300000D01*
X200539523Y-87490476D01*
X200444285Y-87585714D01*
X200253809Y-87680952D01*
X199682380Y-87680952D01*
X199491904Y-87585714D01*
X199396666Y-87490476D01*
X199301428Y-87300000D01*
X199301428Y-86919047D01*
X199396666Y-86728571D01*
X198634761Y-84538095D02*
X198634761Y-83395238D01*
X200634761Y-83966666D02*
X198634761Y-83966666D01*
X200634761Y-82728571D02*
X198634761Y-82728571D01*
X200634761Y-81871428D02*
X199587142Y-81871428D01*
X199396666Y-81966666D01*
X199301428Y-82157142D01*
X199301428Y-82442857D01*
X199396666Y-82633333D01*
X199491904Y-82728571D01*
X200634761Y-80919047D02*
X199301428Y-80919047D01*
X198634761Y-80919047D02*
X198730000Y-81014285D01*
X198825238Y-80919047D01*
X198730000Y-80823809D01*
X198634761Y-80919047D01*
X198825238Y-80919047D01*
X199301428Y-79966666D02*
X200634761Y-79966666D01*
X199491904Y-79966666D02*
X199396666Y-79871428D01*
X199301428Y-79680952D01*
X199301428Y-79395238D01*
X199396666Y-79204761D01*
X199587142Y-79109523D01*
X200634761Y-79109523D01*
X199301428Y-77300000D02*
X200920476Y-77300000D01*
X201110952Y-77395238D01*
X201206190Y-77490476D01*
X201301428Y-77680952D01*
X201301428Y-77966666D01*
X201206190Y-78157142D01*
X200539523Y-77300000D02*
X200634761Y-77490476D01*
X200634761Y-77871428D01*
X200539523Y-78061904D01*
X200444285Y-78157142D01*
X200253809Y-78252380D01*
X199682380Y-78252380D01*
X199491904Y-78157142D01*
X199396666Y-78061904D01*
X199301428Y-77871428D01*
X199301428Y-77490476D01*
X199396666Y-77300000D01*
D11*
X185187857Y-91107142D02*
X183759285Y-91107142D01*
X183759285Y-88107142D01*
X186187857Y-89535714D02*
X187187857Y-89535714D01*
X187616428Y-91107142D02*
X186187857Y-91107142D01*
X186187857Y-88107142D01*
X187616428Y-88107142D01*
X188902142Y-91107142D02*
X188902142Y-88107142D01*
X189616428Y-88107142D01*
X190045000Y-88250000D01*
X190330714Y-88535714D01*
X190473571Y-88821428D01*
X190616428Y-89392857D01*
X190616428Y-89821428D01*
X190473571Y-90392857D01*
X190330714Y-90678571D01*
X190045000Y-90964285D01*
X189616428Y-91107142D01*
X188902142Y-91107142D01*
X193330714Y-88107142D02*
X191902142Y-88107142D01*
X191759285Y-89535714D01*
X191902142Y-89392857D01*
X192187857Y-89250000D01*
X192902142Y-89250000D01*
X193187857Y-89392857D01*
X193330714Y-89535714D01*
X193473571Y-89821428D01*
X193473571Y-90535714D01*
X193330714Y-90821428D01*
X193187857Y-90964285D01*
X192902142Y-91107142D01*
X192187857Y-91107142D01*
X191902142Y-90964285D01*
X191759285Y-90821428D01*
X167072857Y-91107142D02*
X165644285Y-91107142D01*
X165644285Y-88107142D01*
X168072857Y-89535714D02*
X169072857Y-89535714D01*
X169501428Y-91107142D02*
X168072857Y-91107142D01*
X168072857Y-88107142D01*
X169501428Y-88107142D01*
X170787142Y-91107142D02*
X170787142Y-88107142D01*
X171501428Y-88107142D01*
X171930000Y-88250000D01*
X172215714Y-88535714D01*
X172358571Y-88821428D01*
X172501428Y-89392857D01*
X172501428Y-89821428D01*
X172358571Y-90392857D01*
X172215714Y-90678571D01*
X171930000Y-90964285D01*
X171501428Y-91107142D01*
X170787142Y-91107142D01*
X175072857Y-89107142D02*
X175072857Y-91107142D01*
X174358571Y-87964285D02*
X173644285Y-90107142D01*
X175501428Y-90107142D01*
X148932857Y-91107142D02*
X147504285Y-91107142D01*
X147504285Y-88107142D01*
X149932857Y-89535714D02*
X150932857Y-89535714D01*
X151361428Y-91107142D02*
X149932857Y-91107142D01*
X149932857Y-88107142D01*
X151361428Y-88107142D01*
X152647142Y-91107142D02*
X152647142Y-88107142D01*
X153361428Y-88107142D01*
X153790000Y-88250000D01*
X154075714Y-88535714D01*
X154218571Y-88821428D01*
X154361428Y-89392857D01*
X154361428Y-89821428D01*
X154218571Y-90392857D01*
X154075714Y-90678571D01*
X153790000Y-90964285D01*
X153361428Y-91107142D01*
X152647142Y-91107142D01*
X155361428Y-88107142D02*
X157218571Y-88107142D01*
X156218571Y-89250000D01*
X156647142Y-89250000D01*
X156932857Y-89392857D01*
X157075714Y-89535714D01*
X157218571Y-89821428D01*
X157218571Y-90535714D01*
X157075714Y-90821428D01*
X156932857Y-90964285D01*
X156647142Y-91107142D01*
X155790000Y-91107142D01*
X155504285Y-90964285D01*
X155361428Y-90821428D01*
X130792857Y-91107142D02*
X129364285Y-91107142D01*
X129364285Y-88107142D01*
X131792857Y-89535714D02*
X132792857Y-89535714D01*
X133221428Y-91107142D02*
X131792857Y-91107142D01*
X131792857Y-88107142D01*
X133221428Y-88107142D01*
X134507142Y-91107142D02*
X134507142Y-88107142D01*
X135221428Y-88107142D01*
X135650000Y-88250000D01*
X135935714Y-88535714D01*
X136078571Y-88821428D01*
X136221428Y-89392857D01*
X136221428Y-89821428D01*
X136078571Y-90392857D01*
X135935714Y-90678571D01*
X135650000Y-90964285D01*
X135221428Y-91107142D01*
X134507142Y-91107142D01*
X137364285Y-88392857D02*
X137507142Y-88250000D01*
X137792857Y-88107142D01*
X138507142Y-88107142D01*
X138792857Y-88250000D01*
X138935714Y-88392857D01*
X139078571Y-88678571D01*
X139078571Y-88964285D01*
X138935714Y-89392857D01*
X137221428Y-91107142D01*
X139078571Y-91107142D01*
X112652857Y-91107142D02*
X111224285Y-91107142D01*
X111224285Y-88107142D01*
X113652857Y-89535714D02*
X114652857Y-89535714D01*
X115081428Y-91107142D02*
X113652857Y-91107142D01*
X113652857Y-88107142D01*
X115081428Y-88107142D01*
X116367142Y-91107142D02*
X116367142Y-88107142D01*
X117081428Y-88107142D01*
X117510000Y-88250000D01*
X117795714Y-88535714D01*
X117938571Y-88821428D01*
X118081428Y-89392857D01*
X118081428Y-89821428D01*
X117938571Y-90392857D01*
X117795714Y-90678571D01*
X117510000Y-90964285D01*
X117081428Y-91107142D01*
X116367142Y-91107142D01*
X120938571Y-91107142D02*
X119224285Y-91107142D01*
X120081428Y-91107142D02*
X120081428Y-88107142D01*
X119795714Y-88535714D01*
X119510000Y-88821428D01*
X119224285Y-88964285D01*
D12*
X199340000Y-70884285D02*
X199282857Y-70998571D01*
X199282857Y-71170000D01*
X199340000Y-71341428D01*
X199454285Y-71455714D01*
X199568571Y-71512857D01*
X199797142Y-71570000D01*
X199968571Y-71570000D01*
X200197142Y-71512857D01*
X200311428Y-71455714D01*
X200425714Y-71341428D01*
X200482857Y-71170000D01*
X200482857Y-71055714D01*
X200425714Y-70884285D01*
X200368571Y-70827142D01*
X199968571Y-70827142D01*
X199968571Y-71055714D01*
X200482857Y-70312857D02*
X199282857Y-70312857D01*
X200482857Y-69627142D01*
X199282857Y-69627142D01*
X200482857Y-69055714D02*
X199282857Y-69055714D01*
X199282857Y-68770000D01*
X199340000Y-68598571D01*
X199454285Y-68484285D01*
X199568571Y-68427142D01*
X199797142Y-68370000D01*
X199968571Y-68370000D01*
X200197142Y-68427142D01*
X200311428Y-68484285D01*
X200425714Y-68598571D01*
X200482857Y-68770000D01*
X200482857Y-69055714D01*
X199377619Y-61086666D02*
X200477619Y-60720000D01*
X199377619Y-60353333D01*
X200372857Y-59358095D02*
X200425238Y-59410476D01*
X200477619Y-59567619D01*
X200477619Y-59672380D01*
X200425238Y-59829523D01*
X200320476Y-59934285D01*
X200215714Y-59986666D01*
X200006190Y-60039047D01*
X199849047Y-60039047D01*
X199639523Y-59986666D01*
X199534761Y-59934285D01*
X199430000Y-59829523D01*
X199377619Y-59672380D01*
X199377619Y-59567619D01*
X199430000Y-59410476D01*
X199482380Y-59358095D01*
X200372857Y-58258095D02*
X200425238Y-58310476D01*
X200477619Y-58467619D01*
X200477619Y-58572380D01*
X200425238Y-58729523D01*
X200320476Y-58834285D01*
X200215714Y-58886666D01*
X200006190Y-58939047D01*
X199849047Y-58939047D01*
X199639523Y-58886666D01*
X199534761Y-58834285D01*
X199430000Y-58729523D01*
X199377619Y-58572380D01*
X199377619Y-58467619D01*
X199430000Y-58310476D01*
X199482380Y-58258095D01*
D13*
%TO.C,J16*%
X198650000Y-64750000D02*
X198650000Y-67350000D01*
X201310000Y-64750000D02*
X201310000Y-67350000D01*
X198650000Y-64750000D02*
X201310000Y-64750000D01*
X199980000Y-62150000D02*
X201310000Y-62150000D01*
X201310000Y-62150000D02*
X201310000Y-63480000D01*
X198650000Y-67350000D02*
X201310000Y-67350000D01*
%TO.C,J15*%
X192240000Y-100177500D02*
X192240000Y-102777500D01*
X194900000Y-100177500D02*
X194900000Y-102777500D01*
X192240000Y-100177500D02*
X194900000Y-100177500D01*
X193570000Y-97577500D02*
X194900000Y-97577500D01*
X194900000Y-97577500D02*
X194900000Y-98907500D01*
X192240000Y-102777500D02*
X194900000Y-102777500D01*
%TO.C,J14*%
X174100000Y-100177500D02*
X174100000Y-102777500D01*
X176760000Y-100177500D02*
X176760000Y-102777500D01*
X174100000Y-100177500D02*
X176760000Y-100177500D01*
X175430000Y-97577500D02*
X176760000Y-97577500D01*
X176760000Y-97577500D02*
X176760000Y-98907500D01*
X174100000Y-102777500D02*
X176760000Y-102777500D01*
%TO.C,J13*%
X155960000Y-102777500D02*
X158620000Y-102777500D01*
X158620000Y-97577500D02*
X158620000Y-98907500D01*
X157290000Y-97577500D02*
X158620000Y-97577500D01*
X155960000Y-100177500D02*
X158620000Y-100177500D01*
X158620000Y-100177500D02*
X158620000Y-102777500D01*
X155960000Y-100177500D02*
X155960000Y-102777500D01*
%TO.C,J12*%
X137820000Y-100177500D02*
X137820000Y-102777500D01*
X140480000Y-100177500D02*
X140480000Y-102777500D01*
X137820000Y-100177500D02*
X140480000Y-100177500D01*
X139150000Y-97577500D02*
X140480000Y-97577500D01*
X140480000Y-97577500D02*
X140480000Y-98907500D01*
X137820000Y-102777500D02*
X140480000Y-102777500D01*
%TO.C,J11*%
X119680000Y-100177500D02*
X119680000Y-102777500D01*
X122340000Y-100177500D02*
X122340000Y-102777500D01*
X119680000Y-100177500D02*
X122340000Y-100177500D01*
X121010000Y-97577500D02*
X122340000Y-97577500D01*
X122340000Y-97577500D02*
X122340000Y-98907500D01*
X119680000Y-102777500D02*
X122340000Y-102777500D01*
%TO.C,J10*%
X187240000Y-78260000D02*
X187240000Y-80860000D01*
X189900000Y-78260000D02*
X189900000Y-80860000D01*
X187240000Y-78260000D02*
X189900000Y-78260000D01*
X188570000Y-75660000D02*
X189900000Y-75660000D01*
X189900000Y-75660000D02*
X189900000Y-76990000D01*
X187240000Y-80860000D02*
X189900000Y-80860000D01*
%TO.C,J9*%
X187240000Y-63260000D02*
X187240000Y-65860000D01*
X189900000Y-63260000D02*
X189900000Y-65860000D01*
X187240000Y-63260000D02*
X189900000Y-63260000D01*
X188570000Y-60660000D02*
X189900000Y-60660000D01*
X189900000Y-60660000D02*
X189900000Y-61990000D01*
X187240000Y-65860000D02*
X189900000Y-65860000D01*
%TO.C,J8*%
X169100000Y-78260000D02*
X169100000Y-80860000D01*
X171760000Y-78260000D02*
X171760000Y-80860000D01*
X169100000Y-78260000D02*
X171760000Y-78260000D01*
X170430000Y-75660000D02*
X171760000Y-75660000D01*
X171760000Y-75660000D02*
X171760000Y-76990000D01*
X169100000Y-80860000D02*
X171760000Y-80860000D01*
%TO.C,J7*%
X169100000Y-63260000D02*
X169100000Y-65860000D01*
X171760000Y-63260000D02*
X171760000Y-65860000D01*
X169100000Y-63260000D02*
X171760000Y-63260000D01*
X170430000Y-60660000D02*
X171760000Y-60660000D01*
X171760000Y-60660000D02*
X171760000Y-61990000D01*
X169100000Y-65860000D02*
X171760000Y-65860000D01*
%TO.C,J6*%
X150960000Y-78260000D02*
X150960000Y-80860000D01*
X153620000Y-78260000D02*
X153620000Y-80860000D01*
X150960000Y-78260000D02*
X153620000Y-78260000D01*
X152290000Y-75660000D02*
X153620000Y-75660000D01*
X153620000Y-75660000D02*
X153620000Y-76990000D01*
X150960000Y-80860000D02*
X153620000Y-80860000D01*
%TO.C,J5*%
X150960000Y-63260000D02*
X150960000Y-65860000D01*
X153620000Y-63260000D02*
X153620000Y-65860000D01*
X150960000Y-63260000D02*
X153620000Y-63260000D01*
X152290000Y-60660000D02*
X153620000Y-60660000D01*
X153620000Y-60660000D02*
X153620000Y-61990000D01*
X150960000Y-65860000D02*
X153620000Y-65860000D01*
%TO.C,J4*%
X132820000Y-80860000D02*
X135480000Y-80860000D01*
X135480000Y-75660000D02*
X135480000Y-76990000D01*
X134150000Y-75660000D02*
X135480000Y-75660000D01*
X132820000Y-78260000D02*
X135480000Y-78260000D01*
X135480000Y-78260000D02*
X135480000Y-80860000D01*
X132820000Y-78260000D02*
X132820000Y-80860000D01*
%TO.C,J3*%
X132820000Y-65860000D02*
X135480000Y-65860000D01*
X135480000Y-60660000D02*
X135480000Y-61990000D01*
X134150000Y-60660000D02*
X135480000Y-60660000D01*
X132820000Y-63260000D02*
X135480000Y-63260000D01*
X135480000Y-63260000D02*
X135480000Y-65860000D01*
X132820000Y-63260000D02*
X132820000Y-65860000D01*
%TO.C,J2*%
X114680000Y-78260000D02*
X114680000Y-80860000D01*
X117340000Y-78260000D02*
X117340000Y-80860000D01*
X114680000Y-78260000D02*
X117340000Y-78260000D01*
X116010000Y-75660000D02*
X117340000Y-75660000D01*
X117340000Y-75660000D02*
X117340000Y-76990000D01*
X114680000Y-80860000D02*
X117340000Y-80860000D01*
%TO.C,J1*%
X114680000Y-65860000D02*
X117340000Y-65860000D01*
X117340000Y-60660000D02*
X117340000Y-61990000D01*
X116010000Y-60660000D02*
X117340000Y-60660000D01*
X114680000Y-63260000D02*
X117340000Y-63260000D01*
X117340000Y-63260000D02*
X117340000Y-65860000D01*
X114680000Y-63260000D02*
X114680000Y-65860000D01*
%TO.C,D10*%
X187835000Y-99335000D02*
X187835000Y-101795000D01*
X189305000Y-101795000D02*
X189305000Y-99335000D01*
X187835000Y-101795000D02*
X189305000Y-101795000D01*
%TO.C,D8*%
X169695000Y-99375000D02*
X169695000Y-101835000D01*
X171165000Y-101835000D02*
X171165000Y-99375000D01*
X169695000Y-101835000D02*
X171165000Y-101835000D01*
%TO.C,D6*%
X151555000Y-101795000D02*
X153025000Y-101795000D01*
X153025000Y-101795000D02*
X153025000Y-99335000D01*
X151555000Y-99335000D02*
X151555000Y-101795000D01*
%TO.C,D4*%
X133415000Y-99335000D02*
X133415000Y-101795000D01*
X134885000Y-101795000D02*
X134885000Y-99335000D01*
X133415000Y-101795000D02*
X134885000Y-101795000D01*
%TO.C,D2*%
X115275000Y-101795000D02*
X116745000Y-101795000D01*
X116745000Y-101795000D02*
X116745000Y-99335000D01*
X115275000Y-99335000D02*
X115275000Y-101795000D01*
%TO.C,D9*%
X184530000Y-101995000D02*
X184530000Y-99135000D01*
X182610000Y-99135000D02*
X182610000Y-101995000D01*
X182610000Y-101995000D02*
X184530000Y-101995000D01*
%TO.C,D7*%
X166390000Y-102035000D02*
X166390000Y-99175000D01*
X164470000Y-99175000D02*
X164470000Y-102035000D01*
X164470000Y-102035000D02*
X166390000Y-102035000D01*
%TO.C,D5*%
X146330000Y-101995000D02*
X148250000Y-101995000D01*
X146330000Y-99135000D02*
X146330000Y-101995000D01*
X148250000Y-101995000D02*
X148250000Y-99135000D01*
%TO.C,D3*%
X128190000Y-101995000D02*
X130110000Y-101995000D01*
X128190000Y-99135000D02*
X128190000Y-101995000D01*
X130110000Y-101995000D02*
X130110000Y-99135000D01*
%TO.C,D1*%
X111970000Y-101995000D02*
X111970000Y-99135000D01*
X110050000Y-99135000D02*
X110050000Y-101995000D01*
X110050000Y-101995000D02*
X111970000Y-101995000D01*
%TD*%
M02*
