M48
; DRILL file {KiCad (6.0.11)} date Fri Jan  5 21:36:43 2024
; FORMAT={-:-/ absolute / metric / decimal}
; #@! TF.CreationDate,2024-01-05T21:36:43+00:00
; #@! TF.GenerationSoftware,Kicad,Pcbnew,(6.0.11)
; #@! TF.FileFunction,Plated,1,2,PTH
FMAT,2
METRIC
; #@! TA.AperFunction,Plated,PTH,ComponentDrill
T1C1.000
%
G90
G05
T1
X116.01Y-61.99
X116.01Y-64.53
X116.01Y-76.99
X116.01Y-79.53
X121.01Y-98.907
X121.01Y-101.447
X134.15Y-61.99
X134.15Y-64.53
X134.15Y-76.99
X134.15Y-79.53
X139.15Y-98.907
X139.15Y-101.447
X152.29Y-61.99
X152.29Y-64.53
X152.29Y-76.99
X152.29Y-79.53
X157.29Y-98.907
X157.29Y-101.447
X170.43Y-61.99
X170.43Y-64.53
X170.43Y-76.99
X170.43Y-79.53
X175.43Y-98.907
X175.43Y-101.447
X188.57Y-61.99
X188.57Y-64.53
X188.57Y-76.99
X188.57Y-79.53
X193.57Y-98.907
X193.57Y-101.447
X199.98Y-63.48
X199.98Y-66.02
T0
M30
