%TF.GenerationSoftware,KiCad,Pcbnew,(6.0.11)*%
%TF.CreationDate,2024-01-05T21:36:46+00:00*%
%TF.ProjectId,LED-RESISTOR-TESTER,4c45442d-5245-4534-9953-544f522d5445,rev?*%
%TF.SameCoordinates,Original*%
%TF.FileFunction,Legend,Bot*%
%TF.FilePolarity,Positive*%
%FSLAX46Y46*%
G04 Gerber Fmt 4.6, Leading zero omitted, Abs format (unit mm)*
G04 Created by KiCad (PCBNEW (6.0.11)) date 2024-01-05 21:36:46*
%MOMM*%
%LPD*%
G01*
G04 APERTURE LIST*
%ADD10C,0.150000*%
%ADD11C,0.500000*%
G04 APERTURE END LIST*
D10*
X109400000Y-82460000D02*
X195710000Y-82460000D01*
X195710000Y-82460000D02*
X195710000Y-96120000D01*
X195710000Y-96120000D02*
X109400000Y-96120000D01*
X109400000Y-96120000D02*
X109400000Y-82460000D01*
G36*
X109400000Y-82460000D02*
G01*
X195710000Y-82460000D01*
X195710000Y-96120000D01*
X109400000Y-96120000D01*
X109400000Y-82460000D01*
G37*
D11*
X155364642Y-71597142D02*
X156793214Y-71597142D01*
X156793214Y-68597142D01*
X154364642Y-70025714D02*
X153364642Y-70025714D01*
X152936071Y-71597142D02*
X154364642Y-71597142D01*
X154364642Y-68597142D01*
X152936071Y-68597142D01*
X151650357Y-71597142D02*
X151650357Y-68597142D01*
X150936071Y-68597142D01*
X150507500Y-68740000D01*
X150221785Y-69025714D01*
X150078928Y-69311428D01*
X149936071Y-69882857D01*
X149936071Y-70311428D01*
X150078928Y-70882857D01*
X150221785Y-71168571D01*
X150507500Y-71454285D01*
X150936071Y-71597142D01*
X151650357Y-71597142D01*
X148936071Y-68597142D02*
X147078928Y-68597142D01*
X148078928Y-69740000D01*
X147650357Y-69740000D01*
X147364642Y-69882857D01*
X147221785Y-70025714D01*
X147078928Y-70311428D01*
X147078928Y-71025714D01*
X147221785Y-71311428D01*
X147364642Y-71454285D01*
X147650357Y-71597142D01*
X148507500Y-71597142D01*
X148793214Y-71454285D01*
X148936071Y-71311428D01*
X191619642Y-71597142D02*
X193048214Y-71597142D01*
X193048214Y-68597142D01*
X190619642Y-70025714D02*
X189619642Y-70025714D01*
X189191071Y-71597142D02*
X190619642Y-71597142D01*
X190619642Y-68597142D01*
X189191071Y-68597142D01*
X187905357Y-71597142D02*
X187905357Y-68597142D01*
X187191071Y-68597142D01*
X186762500Y-68740000D01*
X186476785Y-69025714D01*
X186333928Y-69311428D01*
X186191071Y-69882857D01*
X186191071Y-70311428D01*
X186333928Y-70882857D01*
X186476785Y-71168571D01*
X186762500Y-71454285D01*
X187191071Y-71597142D01*
X187905357Y-71597142D01*
X183476785Y-68597142D02*
X184905357Y-68597142D01*
X185048214Y-70025714D01*
X184905357Y-69882857D01*
X184619642Y-69740000D01*
X183905357Y-69740000D01*
X183619642Y-69882857D01*
X183476785Y-70025714D01*
X183333928Y-70311428D01*
X183333928Y-71025714D01*
X183476785Y-71311428D01*
X183619642Y-71454285D01*
X183905357Y-71597142D01*
X184619642Y-71597142D01*
X184905357Y-71454285D01*
X185048214Y-71311428D01*
X119084642Y-71967142D02*
X120513214Y-71967142D01*
X120513214Y-68967142D01*
X118084642Y-70395714D02*
X117084642Y-70395714D01*
X116656071Y-71967142D02*
X118084642Y-71967142D01*
X118084642Y-68967142D01*
X116656071Y-68967142D01*
X115370357Y-71967142D02*
X115370357Y-68967142D01*
X114656071Y-68967142D01*
X114227500Y-69110000D01*
X113941785Y-69395714D01*
X113798928Y-69681428D01*
X113656071Y-70252857D01*
X113656071Y-70681428D01*
X113798928Y-71252857D01*
X113941785Y-71538571D01*
X114227500Y-71824285D01*
X114656071Y-71967142D01*
X115370357Y-71967142D01*
X110798928Y-71967142D02*
X112513214Y-71967142D01*
X111656071Y-71967142D02*
X111656071Y-68967142D01*
X111941785Y-69395714D01*
X112227500Y-69681428D01*
X112513214Y-69824285D01*
X137224642Y-71597142D02*
X138653214Y-71597142D01*
X138653214Y-68597142D01*
X136224642Y-70025714D02*
X135224642Y-70025714D01*
X134796071Y-71597142D02*
X136224642Y-71597142D01*
X136224642Y-68597142D01*
X134796071Y-68597142D01*
X133510357Y-71597142D02*
X133510357Y-68597142D01*
X132796071Y-68597142D01*
X132367500Y-68740000D01*
X132081785Y-69025714D01*
X131938928Y-69311428D01*
X131796071Y-69882857D01*
X131796071Y-70311428D01*
X131938928Y-70882857D01*
X132081785Y-71168571D01*
X132367500Y-71454285D01*
X132796071Y-71597142D01*
X133510357Y-71597142D01*
X130653214Y-68882857D02*
X130510357Y-68740000D01*
X130224642Y-68597142D01*
X129510357Y-68597142D01*
X129224642Y-68740000D01*
X129081785Y-68882857D01*
X128938928Y-69168571D01*
X128938928Y-69454285D01*
X129081785Y-69882857D01*
X130796071Y-71597142D01*
X128938928Y-71597142D01*
X173504642Y-71597142D02*
X174933214Y-71597142D01*
X174933214Y-68597142D01*
X172504642Y-70025714D02*
X171504642Y-70025714D01*
X171076071Y-71597142D02*
X172504642Y-71597142D01*
X172504642Y-68597142D01*
X171076071Y-68597142D01*
X169790357Y-71597142D02*
X169790357Y-68597142D01*
X169076071Y-68597142D01*
X168647500Y-68740000D01*
X168361785Y-69025714D01*
X168218928Y-69311428D01*
X168076071Y-69882857D01*
X168076071Y-70311428D01*
X168218928Y-70882857D01*
X168361785Y-71168571D01*
X168647500Y-71454285D01*
X169076071Y-71597142D01*
X169790357Y-71597142D01*
X165504642Y-69597142D02*
X165504642Y-71597142D01*
X166218928Y-68454285D02*
X166933214Y-70597142D01*
X165076071Y-70597142D01*
M02*
