%TF.GenerationSoftware,KiCad,Pcbnew,(6.0.11)*%
%TF.CreationDate,2024-01-05T21:44:53+00:00*%
%TF.ProjectId,LED-RESISTOR-TESTER,4c45442d-5245-4534-9953-544f522d5445,rev?*%
%TF.SameCoordinates,Original*%
%TF.FileFunction,Soldermask,Top*%
%TF.FilePolarity,Negative*%
%FSLAX46Y46*%
G04 Gerber Fmt 4.6, Leading zero omitted, Abs format (unit mm)*
G04 Created by KiCad (PCBNEW (6.0.11)) date 2024-01-05 21:44:53*
%MOMM*%
%LPD*%
G01*
G04 APERTURE LIST*
G04 Aperture macros list*
%AMRoundRect*
0 Rectangle with rounded corners*
0 $1 Rounding radius*
0 $2 $3 $4 $5 $6 $7 $8 $9 X,Y pos of 4 corners*
0 Add a 4 corners polygon primitive as box body*
4,1,4,$2,$3,$4,$5,$6,$7,$8,$9,$2,$3,0*
0 Add four circle primitives for the rounded corners*
1,1,$1+$1,$2,$3*
1,1,$1+$1,$4,$5*
1,1,$1+$1,$6,$7*
1,1,$1+$1,$8,$9*
0 Add four rect primitives between the rounded corners*
20,1,$1+$1,$2,$3,$4,$5,0*
20,1,$1+$1,$4,$5,$6,$7,0*
20,1,$1+$1,$6,$7,$8,$9,0*
20,1,$1+$1,$8,$9,$2,$3,0*%
G04 Aperture macros list end*
%ADD10RoundRect,0.250000X0.450000X-0.325000X0.450000X0.325000X-0.450000X0.325000X-0.450000X-0.325000X0*%
%ADD11R,1.700000X1.700000*%
%ADD12O,1.700000X1.700000*%
%ADD13RoundRect,0.237500X0.237500X-0.287500X0.237500X0.287500X-0.237500X0.287500X-0.237500X-0.287500X0*%
G04 APERTURE END LIST*
D10*
%TO.C,D1*%
X111010000Y-101160000D03*
X111010000Y-99110000D03*
%TD*%
D11*
%TO.C,J8*%
X170430000Y-76990000D03*
D12*
X170430000Y-79530000D03*
%TD*%
D10*
%TO.C,D5*%
X147290000Y-101160000D03*
X147290000Y-99110000D03*
%TD*%
D13*
%TO.C,D4*%
X134150000Y-101010000D03*
X134150000Y-99260000D03*
%TD*%
D11*
%TO.C,J12*%
X139150000Y-98907500D03*
D12*
X139150000Y-101447500D03*
%TD*%
D11*
%TO.C,J6*%
X152290000Y-76990000D03*
D12*
X152290000Y-79530000D03*
%TD*%
D13*
%TO.C,D10*%
X188570000Y-101010000D03*
X188570000Y-99260000D03*
%TD*%
%TO.C,D8*%
X170430000Y-101050000D03*
X170430000Y-99300000D03*
%TD*%
D11*
%TO.C,J9*%
X188570000Y-61990000D03*
D12*
X188570000Y-64530000D03*
%TD*%
D11*
%TO.C,J10*%
X188570000Y-76990000D03*
D12*
X188570000Y-79530000D03*
%TD*%
D13*
%TO.C,D6*%
X152290000Y-101010000D03*
X152290000Y-99260000D03*
%TD*%
D11*
%TO.C,J2*%
X116010000Y-76990000D03*
D12*
X116010000Y-79530000D03*
%TD*%
D11*
%TO.C,J14*%
X175430000Y-98907500D03*
D12*
X175430000Y-101447500D03*
%TD*%
D11*
%TO.C,J4*%
X134150000Y-76990000D03*
D12*
X134150000Y-79530000D03*
%TD*%
D10*
%TO.C,D9*%
X183570000Y-101160000D03*
X183570000Y-99110000D03*
%TD*%
%TO.C,D7*%
X165430000Y-101200000D03*
X165430000Y-99150000D03*
%TD*%
D11*
%TO.C,J15*%
X193570000Y-98907500D03*
D12*
X193570000Y-101447500D03*
%TD*%
D11*
%TO.C,J13*%
X157290000Y-98907500D03*
D12*
X157290000Y-101447500D03*
%TD*%
D11*
%TO.C,J11*%
X121010000Y-98907500D03*
D12*
X121010000Y-101447500D03*
%TD*%
D11*
%TO.C,J1*%
X116010000Y-61990000D03*
D12*
X116010000Y-64530000D03*
%TD*%
D11*
%TO.C,J16*%
X199980000Y-63480000D03*
D12*
X199980000Y-66020000D03*
%TD*%
D10*
%TO.C,D3*%
X129150000Y-101160000D03*
X129150000Y-99110000D03*
%TD*%
D11*
%TO.C,J3*%
X134150000Y-61990000D03*
D12*
X134150000Y-64530000D03*
%TD*%
D11*
%TO.C,J5*%
X152290000Y-61990000D03*
D12*
X152290000Y-64530000D03*
%TD*%
D13*
%TO.C,D2*%
X116010000Y-101010000D03*
X116010000Y-99260000D03*
%TD*%
D11*
%TO.C,J7*%
X170430000Y-61990000D03*
D12*
X170430000Y-64530000D03*
%TD*%
M02*
