%TF.GenerationSoftware,KiCad,Pcbnew,(6.0.11)*%
%TF.CreationDate,2024-01-05T21:44:53+00:00*%
%TF.ProjectId,LED-RESISTOR-TESTER,4c45442d-5245-4534-9953-544f522d5445,rev?*%
%TF.SameCoordinates,Original*%
%TF.FileFunction,Copper,L1,Top*%
%TF.FilePolarity,Positive*%
%FSLAX46Y46*%
G04 Gerber Fmt 4.6, Leading zero omitted, Abs format (unit mm)*
G04 Created by KiCad (PCBNEW (6.0.11)) date 2024-01-05 21:44:53*
%MOMM*%
%LPD*%
G01*
G04 APERTURE LIST*
G04 Aperture macros list*
%AMRoundRect*
0 Rectangle with rounded corners*
0 $1 Rounding radius*
0 $2 $3 $4 $5 $6 $7 $8 $9 X,Y pos of 4 corners*
0 Add a 4 corners polygon primitive as box body*
4,1,4,$2,$3,$4,$5,$6,$7,$8,$9,$2,$3,0*
0 Add four circle primitives for the rounded corners*
1,1,$1+$1,$2,$3*
1,1,$1+$1,$4,$5*
1,1,$1+$1,$6,$7*
1,1,$1+$1,$8,$9*
0 Add four rect primitives between the rounded corners*
20,1,$1+$1,$2,$3,$4,$5,0*
20,1,$1+$1,$4,$5,$6,$7,0*
20,1,$1+$1,$6,$7,$8,$9,0*
20,1,$1+$1,$8,$9,$2,$3,0*%
G04 Aperture macros list end*
%TA.AperFunction,SMDPad,CuDef*%
%ADD10RoundRect,0.250000X0.450000X-0.325000X0.450000X0.325000X-0.450000X0.325000X-0.450000X-0.325000X0*%
%TD*%
%TA.AperFunction,ComponentPad*%
%ADD11R,1.700000X1.700000*%
%TD*%
%TA.AperFunction,ComponentPad*%
%ADD12O,1.700000X1.700000*%
%TD*%
%TA.AperFunction,SMDPad,CuDef*%
%ADD13RoundRect,0.237500X0.237500X-0.287500X0.237500X0.287500X-0.237500X0.287500X-0.237500X-0.287500X0*%
%TD*%
%TA.AperFunction,Conductor*%
%ADD14C,0.500000*%
%TD*%
G04 APERTURE END LIST*
D10*
%TO.P,D1,1,K*%
%TO.N,GND*%
X111010000Y-101160000D03*
%TO.P,D1,2,A*%
%TO.N,/LED1*%
X111010000Y-99110000D03*
%TD*%
D11*
%TO.P,J8,1,Pin_1*%
%TO.N,/LED4*%
X170430000Y-76990000D03*
D12*
%TO.P,J8,2,Pin_2*%
X170430000Y-79530000D03*
%TD*%
D10*
%TO.P,D5,1,K*%
%TO.N,GND*%
X147290000Y-101160000D03*
%TO.P,D5,2,A*%
%TO.N,/LED3*%
X147290000Y-99110000D03*
%TD*%
D13*
%TO.P,D4,1,K*%
%TO.N,GND*%
X134150000Y-101010000D03*
%TO.P,D4,2,A*%
%TO.N,/LED2*%
X134150000Y-99260000D03*
%TD*%
D11*
%TO.P,J12,1,Pin_1*%
%TO.N,/LED2*%
X139150000Y-98907500D03*
D12*
%TO.P,J12,2,Pin_2*%
%TO.N,GND*%
X139150000Y-101447500D03*
%TD*%
D11*
%TO.P,J6,1,Pin_1*%
%TO.N,/LED3*%
X152290000Y-76990000D03*
D12*
%TO.P,J6,2,Pin_2*%
X152290000Y-79530000D03*
%TD*%
D13*
%TO.P,D10,1,K*%
%TO.N,GND*%
X188570000Y-101010000D03*
%TO.P,D10,2,A*%
%TO.N,/LED5*%
X188570000Y-99260000D03*
%TD*%
%TO.P,D8,1,K*%
%TO.N,GND*%
X170430000Y-101050000D03*
%TO.P,D8,2,A*%
%TO.N,/LED4*%
X170430000Y-99300000D03*
%TD*%
D11*
%TO.P,J9,1,Pin_1*%
%TO.N,VCC*%
X188570000Y-61990000D03*
D12*
%TO.P,J9,2,Pin_2*%
X188570000Y-64530000D03*
%TD*%
D11*
%TO.P,J10,1,Pin_1*%
%TO.N,/LED5*%
X188570000Y-76990000D03*
D12*
%TO.P,J10,2,Pin_2*%
X188570000Y-79530000D03*
%TD*%
D13*
%TO.P,D6,1,K*%
%TO.N,GND*%
X152290000Y-101010000D03*
%TO.P,D6,2,A*%
%TO.N,/LED3*%
X152290000Y-99260000D03*
%TD*%
D11*
%TO.P,J2,1,Pin_1*%
%TO.N,/LED1*%
X116010000Y-76990000D03*
D12*
%TO.P,J2,2,Pin_2*%
X116010000Y-79530000D03*
%TD*%
D11*
%TO.P,J14,1,Pin_1*%
%TO.N,/LED4*%
X175430000Y-98907500D03*
D12*
%TO.P,J14,2,Pin_2*%
%TO.N,GND*%
X175430000Y-101447500D03*
%TD*%
D11*
%TO.P,J4,1,Pin_1*%
%TO.N,/LED2*%
X134150000Y-76990000D03*
D12*
%TO.P,J4,2,Pin_2*%
X134150000Y-79530000D03*
%TD*%
D10*
%TO.P,D9,1,K*%
%TO.N,GND*%
X183570000Y-101160000D03*
%TO.P,D9,2,A*%
%TO.N,/LED5*%
X183570000Y-99110000D03*
%TD*%
%TO.P,D7,1,K*%
%TO.N,GND*%
X165430000Y-101200000D03*
%TO.P,D7,2,A*%
%TO.N,/LED4*%
X165430000Y-99150000D03*
%TD*%
D11*
%TO.P,J15,1,Pin_1*%
%TO.N,/LED5*%
X193570000Y-98907500D03*
D12*
%TO.P,J15,2,Pin_2*%
%TO.N,GND*%
X193570000Y-101447500D03*
%TD*%
D11*
%TO.P,J13,1,Pin_1*%
%TO.N,/LED3*%
X157290000Y-98907500D03*
D12*
%TO.P,J13,2,Pin_2*%
%TO.N,GND*%
X157290000Y-101447500D03*
%TD*%
D11*
%TO.P,J11,1,Pin_1*%
%TO.N,/LED1*%
X121010000Y-98907500D03*
D12*
%TO.P,J11,2,Pin_2*%
%TO.N,GND*%
X121010000Y-101447500D03*
%TD*%
D11*
%TO.P,J1,1,Pin_1*%
%TO.N,VCC*%
X116010000Y-61990000D03*
D12*
%TO.P,J1,2,Pin_2*%
X116010000Y-64530000D03*
%TD*%
D11*
%TO.P,J16,1,Pin_1*%
%TO.N,VCC*%
X199980000Y-63480000D03*
D12*
%TO.P,J16,2,Pin_2*%
%TO.N,GND*%
X199980000Y-66020000D03*
%TD*%
D10*
%TO.P,D3,1,K*%
%TO.N,GND*%
X129150000Y-101160000D03*
%TO.P,D3,2,A*%
%TO.N,/LED2*%
X129150000Y-99110000D03*
%TD*%
D11*
%TO.P,J3,1,Pin_1*%
%TO.N,VCC*%
X134150000Y-61990000D03*
D12*
%TO.P,J3,2,Pin_2*%
X134150000Y-64530000D03*
%TD*%
D11*
%TO.P,J5,1,Pin_1*%
%TO.N,VCC*%
X152290000Y-61990000D03*
D12*
%TO.P,J5,2,Pin_2*%
X152290000Y-64530000D03*
%TD*%
D13*
%TO.P,D2,1,K*%
%TO.N,GND*%
X116010000Y-101010000D03*
%TO.P,D2,2,A*%
%TO.N,/LED1*%
X116010000Y-99260000D03*
%TD*%
D11*
%TO.P,J7,1,Pin_1*%
%TO.N,VCC*%
X170430000Y-61990000D03*
D12*
%TO.P,J7,2,Pin_2*%
X170430000Y-64530000D03*
%TD*%
D14*
%TO.N,/LED1*%
X116362500Y-98907500D02*
X116010000Y-99260000D01*
X116010000Y-76990000D02*
X116010000Y-79530000D01*
X121010000Y-98907500D02*
X116362500Y-98907500D01*
X116010000Y-79530000D02*
X116010000Y-99260000D01*
X116010000Y-99260000D02*
X111160000Y-99260000D01*
X111160000Y-99260000D02*
X111010000Y-99110000D01*
%TO.N,/LED2*%
X134000000Y-99110000D02*
X134150000Y-99260000D01*
X139150000Y-98907500D02*
X134502500Y-98907500D01*
X134502500Y-98907500D02*
X134150000Y-99260000D01*
X134150000Y-76990000D02*
X134150000Y-79530000D01*
X129150000Y-99110000D02*
X134000000Y-99110000D01*
X134150000Y-99260000D02*
X134150000Y-79530000D01*
%TO.N,/LED3*%
X157290000Y-98907500D02*
X152642500Y-98907500D01*
X152642500Y-98907500D02*
X152290000Y-99260000D01*
X147440000Y-99260000D02*
X147290000Y-99110000D01*
X152290000Y-76990000D02*
X152290000Y-79530000D01*
X152290000Y-99260000D02*
X147440000Y-99260000D01*
X152290000Y-79530000D02*
X152290000Y-99260000D01*
%TO.N,/LED4*%
X170430000Y-79530000D02*
X170430000Y-99300000D01*
X165580000Y-99300000D02*
X165430000Y-99150000D01*
X175430000Y-98907500D02*
X170822500Y-98907500D01*
X170430000Y-99300000D02*
X165580000Y-99300000D01*
X170822500Y-98907500D02*
X170430000Y-99300000D01*
%TO.N,/LED5*%
X188570000Y-99260000D02*
X183720000Y-99260000D01*
X193570000Y-98907500D02*
X188922500Y-98907500D01*
X188922500Y-98907500D02*
X188570000Y-99260000D01*
X188570000Y-79530000D02*
X188570000Y-99260000D01*
X183720000Y-99260000D02*
X183570000Y-99110000D01*
%TO.N,VCC*%
X195310000Y-63480000D02*
X193820000Y-61990000D01*
X152290000Y-61990000D02*
X134150000Y-61990000D01*
X134150000Y-64530000D02*
X134150000Y-61990000D01*
X152290000Y-64530000D02*
X152290000Y-61990000D01*
X170430000Y-64530000D02*
X170430000Y-61990000D01*
X199930000Y-63430000D02*
X199980000Y-63480000D01*
X188570000Y-61990000D02*
X170430000Y-61990000D01*
X134150000Y-61990000D02*
X116010000Y-61990000D01*
X170430000Y-61990000D02*
X152290000Y-61990000D01*
X199980000Y-63480000D02*
X195310000Y-63480000D01*
X188570000Y-64530000D02*
X188570000Y-61990000D01*
X116010000Y-64530000D02*
X116010000Y-61990000D01*
X193820000Y-61990000D02*
X188570000Y-61990000D01*
%TD*%
%TA.AperFunction,Conductor*%
%TO.N,GND*%
G36*
X204233621Y-56703502D02*
G01*
X204280114Y-56757158D01*
X204291500Y-56809500D01*
X204291500Y-107670500D01*
X204271498Y-107738621D01*
X204217842Y-107785114D01*
X204165500Y-107796500D01*
X108954500Y-107796500D01*
X108886379Y-107776498D01*
X108839886Y-107722842D01*
X108828500Y-107670500D01*
X108828500Y-101532095D01*
X109802001Y-101532095D01*
X109802338Y-101538614D01*
X109812257Y-101634206D01*
X109815149Y-101647600D01*
X109866588Y-101801784D01*
X109872761Y-101814962D01*
X109958063Y-101952807D01*
X109967099Y-101964208D01*
X110081829Y-102078739D01*
X110093240Y-102087751D01*
X110231243Y-102172816D01*
X110244424Y-102178963D01*
X110398710Y-102230138D01*
X110412086Y-102233005D01*
X110506438Y-102242672D01*
X110512854Y-102243000D01*
X110737885Y-102243000D01*
X110753124Y-102238525D01*
X110754329Y-102237135D01*
X110756000Y-102229452D01*
X110756000Y-102224884D01*
X111264000Y-102224884D01*
X111268475Y-102240123D01*
X111269865Y-102241328D01*
X111277548Y-102242999D01*
X111507095Y-102242999D01*
X111513614Y-102242662D01*
X111609206Y-102232743D01*
X111622600Y-102229851D01*
X111776784Y-102178412D01*
X111789962Y-102172239D01*
X111927807Y-102086937D01*
X111939208Y-102077901D01*
X112053739Y-101963171D01*
X112062751Y-101951760D01*
X112147816Y-101813757D01*
X112153963Y-101800576D01*
X112205138Y-101646290D01*
X112208005Y-101632914D01*
X112217672Y-101538562D01*
X112218000Y-101532146D01*
X112218000Y-101432115D01*
X112213525Y-101416876D01*
X112212135Y-101415671D01*
X112204452Y-101414000D01*
X111282115Y-101414000D01*
X111266876Y-101418475D01*
X111265671Y-101419865D01*
X111264000Y-101427548D01*
X111264000Y-102224884D01*
X110756000Y-102224884D01*
X110756000Y-101432115D01*
X110751525Y-101416876D01*
X110750135Y-101415671D01*
X110742452Y-101414000D01*
X109820116Y-101414000D01*
X109804877Y-101418475D01*
X109803672Y-101419865D01*
X109802001Y-101427548D01*
X109802001Y-101532095D01*
X108828500Y-101532095D01*
X108828500Y-101343766D01*
X115027000Y-101343766D01*
X115027337Y-101350282D01*
X115037075Y-101444132D01*
X115039968Y-101457528D01*
X115090488Y-101608953D01*
X115096653Y-101622115D01*
X115180426Y-101757492D01*
X115189460Y-101768890D01*
X115302129Y-101881363D01*
X115313540Y-101890375D01*
X115449063Y-101973912D01*
X115462241Y-101980056D01*
X115613766Y-102030315D01*
X115627132Y-102033181D01*
X115719770Y-102042672D01*
X115726185Y-102043000D01*
X115737885Y-102043000D01*
X115753124Y-102038525D01*
X115754329Y-102037135D01*
X115756000Y-102029452D01*
X115756000Y-102024885D01*
X116264000Y-102024885D01*
X116268475Y-102040124D01*
X116269865Y-102041329D01*
X116277548Y-102043000D01*
X116293766Y-102043000D01*
X116300282Y-102042663D01*
X116394132Y-102032925D01*
X116407528Y-102030032D01*
X116558953Y-101979512D01*
X116572115Y-101973347D01*
X116707492Y-101889574D01*
X116718890Y-101880540D01*
X116831363Y-101767871D01*
X116840375Y-101756460D01*
X116865644Y-101715466D01*
X119678257Y-101715466D01*
X119708565Y-101849946D01*
X119711645Y-101859775D01*
X119791770Y-102057103D01*
X119796413Y-102066294D01*
X119907694Y-102247888D01*
X119913777Y-102256199D01*
X120053213Y-102417167D01*
X120060580Y-102424383D01*
X120224434Y-102560416D01*
X120232881Y-102566331D01*
X120416756Y-102673779D01*
X120426042Y-102678229D01*
X120625001Y-102754203D01*
X120634899Y-102757079D01*
X120738250Y-102778106D01*
X120752299Y-102776910D01*
X120756000Y-102766565D01*
X120756000Y-102766017D01*
X121264000Y-102766017D01*
X121268064Y-102779859D01*
X121281478Y-102781893D01*
X121288184Y-102781034D01*
X121298262Y-102778892D01*
X121502255Y-102717691D01*
X121511842Y-102713933D01*
X121703095Y-102620239D01*
X121711945Y-102614964D01*
X121885328Y-102491292D01*
X121893200Y-102484639D01*
X122044052Y-102334312D01*
X122050730Y-102326465D01*
X122175003Y-102153520D01*
X122180313Y-102144683D01*
X122274670Y-101953767D01*
X122278469Y-101944172D01*
X122340377Y-101740410D01*
X122342555Y-101730337D01*
X122343986Y-101719462D01*
X122341775Y-101705278D01*
X122328617Y-101701500D01*
X121282115Y-101701500D01*
X121266876Y-101705975D01*
X121265671Y-101707365D01*
X121264000Y-101715048D01*
X121264000Y-102766017D01*
X120756000Y-102766017D01*
X120756000Y-101719615D01*
X120751525Y-101704376D01*
X120750135Y-101703171D01*
X120742452Y-101701500D01*
X119693225Y-101701500D01*
X119679694Y-101705473D01*
X119678257Y-101715466D01*
X116865644Y-101715466D01*
X116923912Y-101620937D01*
X116930056Y-101607759D01*
X116955153Y-101532095D01*
X127942001Y-101532095D01*
X127942338Y-101538614D01*
X127952257Y-101634206D01*
X127955149Y-101647600D01*
X128006588Y-101801784D01*
X128012761Y-101814962D01*
X128098063Y-101952807D01*
X128107099Y-101964208D01*
X128221829Y-102078739D01*
X128233240Y-102087751D01*
X128371243Y-102172816D01*
X128384424Y-102178963D01*
X128538710Y-102230138D01*
X128552086Y-102233005D01*
X128646438Y-102242672D01*
X128652854Y-102243000D01*
X128877885Y-102243000D01*
X128893124Y-102238525D01*
X128894329Y-102237135D01*
X128896000Y-102229452D01*
X128896000Y-102224884D01*
X129404000Y-102224884D01*
X129408475Y-102240123D01*
X129409865Y-102241328D01*
X129417548Y-102242999D01*
X129647095Y-102242999D01*
X129653614Y-102242662D01*
X129749206Y-102232743D01*
X129762600Y-102229851D01*
X129916784Y-102178412D01*
X129929962Y-102172239D01*
X130067807Y-102086937D01*
X130079208Y-102077901D01*
X130193739Y-101963171D01*
X130202751Y-101951760D01*
X130287816Y-101813757D01*
X130293963Y-101800576D01*
X130345138Y-101646290D01*
X130348005Y-101632914D01*
X130357672Y-101538562D01*
X130358000Y-101532146D01*
X130358000Y-101432115D01*
X130353525Y-101416876D01*
X130352135Y-101415671D01*
X130344452Y-101414000D01*
X129422115Y-101414000D01*
X129406876Y-101418475D01*
X129405671Y-101419865D01*
X129404000Y-101427548D01*
X129404000Y-102224884D01*
X128896000Y-102224884D01*
X128896000Y-101432115D01*
X128891525Y-101416876D01*
X128890135Y-101415671D01*
X128882452Y-101414000D01*
X127960116Y-101414000D01*
X127944877Y-101418475D01*
X127943672Y-101419865D01*
X127942001Y-101427548D01*
X127942001Y-101532095D01*
X116955153Y-101532095D01*
X116980315Y-101456234D01*
X116983181Y-101442868D01*
X116992672Y-101350230D01*
X116993000Y-101343815D01*
X116993000Y-101343766D01*
X133167000Y-101343766D01*
X133167337Y-101350282D01*
X133177075Y-101444132D01*
X133179968Y-101457528D01*
X133230488Y-101608953D01*
X133236653Y-101622115D01*
X133320426Y-101757492D01*
X133329460Y-101768890D01*
X133442129Y-101881363D01*
X133453540Y-101890375D01*
X133589063Y-101973912D01*
X133602241Y-101980056D01*
X133753766Y-102030315D01*
X133767132Y-102033181D01*
X133859770Y-102042672D01*
X133866185Y-102043000D01*
X133877885Y-102043000D01*
X133893124Y-102038525D01*
X133894329Y-102037135D01*
X133896000Y-102029452D01*
X133896000Y-102024885D01*
X134404000Y-102024885D01*
X134408475Y-102040124D01*
X134409865Y-102041329D01*
X134417548Y-102043000D01*
X134433766Y-102043000D01*
X134440282Y-102042663D01*
X134534132Y-102032925D01*
X134547528Y-102030032D01*
X134698953Y-101979512D01*
X134712115Y-101973347D01*
X134847492Y-101889574D01*
X134858890Y-101880540D01*
X134971363Y-101767871D01*
X134980375Y-101756460D01*
X135005644Y-101715466D01*
X137818257Y-101715466D01*
X137848565Y-101849946D01*
X137851645Y-101859775D01*
X137931770Y-102057103D01*
X137936413Y-102066294D01*
X138047694Y-102247888D01*
X138053777Y-102256199D01*
X138193213Y-102417167D01*
X138200580Y-102424383D01*
X138364434Y-102560416D01*
X138372881Y-102566331D01*
X138556756Y-102673779D01*
X138566042Y-102678229D01*
X138765001Y-102754203D01*
X138774899Y-102757079D01*
X138878250Y-102778106D01*
X138892299Y-102776910D01*
X138896000Y-102766565D01*
X138896000Y-102766017D01*
X139404000Y-102766017D01*
X139408064Y-102779859D01*
X139421478Y-102781893D01*
X139428184Y-102781034D01*
X139438262Y-102778892D01*
X139642255Y-102717691D01*
X139651842Y-102713933D01*
X139843095Y-102620239D01*
X139851945Y-102614964D01*
X140025328Y-102491292D01*
X140033200Y-102484639D01*
X140184052Y-102334312D01*
X140190730Y-102326465D01*
X140315003Y-102153520D01*
X140320313Y-102144683D01*
X140414670Y-101953767D01*
X140418469Y-101944172D01*
X140480377Y-101740410D01*
X140482555Y-101730337D01*
X140483986Y-101719462D01*
X140481775Y-101705278D01*
X140468617Y-101701500D01*
X139422115Y-101701500D01*
X139406876Y-101705975D01*
X139405671Y-101707365D01*
X139404000Y-101715048D01*
X139404000Y-102766017D01*
X138896000Y-102766017D01*
X138896000Y-101719615D01*
X138891525Y-101704376D01*
X138890135Y-101703171D01*
X138882452Y-101701500D01*
X137833225Y-101701500D01*
X137819694Y-101705473D01*
X137818257Y-101715466D01*
X135005644Y-101715466D01*
X135063912Y-101620937D01*
X135070056Y-101607759D01*
X135095153Y-101532095D01*
X146082001Y-101532095D01*
X146082338Y-101538614D01*
X146092257Y-101634206D01*
X146095149Y-101647600D01*
X146146588Y-101801784D01*
X146152761Y-101814962D01*
X146238063Y-101952807D01*
X146247099Y-101964208D01*
X146361829Y-102078739D01*
X146373240Y-102087751D01*
X146511243Y-102172816D01*
X146524424Y-102178963D01*
X146678710Y-102230138D01*
X146692086Y-102233005D01*
X146786438Y-102242672D01*
X146792854Y-102243000D01*
X147017885Y-102243000D01*
X147033124Y-102238525D01*
X147034329Y-102237135D01*
X147036000Y-102229452D01*
X147036000Y-102224884D01*
X147544000Y-102224884D01*
X147548475Y-102240123D01*
X147549865Y-102241328D01*
X147557548Y-102242999D01*
X147787095Y-102242999D01*
X147793614Y-102242662D01*
X147889206Y-102232743D01*
X147902600Y-102229851D01*
X148056784Y-102178412D01*
X148069962Y-102172239D01*
X148207807Y-102086937D01*
X148219208Y-102077901D01*
X148333739Y-101963171D01*
X148342751Y-101951760D01*
X148427816Y-101813757D01*
X148433963Y-101800576D01*
X148485138Y-101646290D01*
X148488005Y-101632914D01*
X148497672Y-101538562D01*
X148498000Y-101532146D01*
X148498000Y-101432115D01*
X148493525Y-101416876D01*
X148492135Y-101415671D01*
X148484452Y-101414000D01*
X147562115Y-101414000D01*
X147546876Y-101418475D01*
X147545671Y-101419865D01*
X147544000Y-101427548D01*
X147544000Y-102224884D01*
X147036000Y-102224884D01*
X147036000Y-101432115D01*
X147031525Y-101416876D01*
X147030135Y-101415671D01*
X147022452Y-101414000D01*
X146100116Y-101414000D01*
X146084877Y-101418475D01*
X146083672Y-101419865D01*
X146082001Y-101427548D01*
X146082001Y-101532095D01*
X135095153Y-101532095D01*
X135120315Y-101456234D01*
X135123181Y-101442868D01*
X135132672Y-101350230D01*
X135133000Y-101343815D01*
X135133000Y-101343766D01*
X151307000Y-101343766D01*
X151307337Y-101350282D01*
X151317075Y-101444132D01*
X151319968Y-101457528D01*
X151370488Y-101608953D01*
X151376653Y-101622115D01*
X151460426Y-101757492D01*
X151469460Y-101768890D01*
X151582129Y-101881363D01*
X151593540Y-101890375D01*
X151729063Y-101973912D01*
X151742241Y-101980056D01*
X151893766Y-102030315D01*
X151907132Y-102033181D01*
X151999770Y-102042672D01*
X152006185Y-102043000D01*
X152017885Y-102043000D01*
X152033124Y-102038525D01*
X152034329Y-102037135D01*
X152036000Y-102029452D01*
X152036000Y-102024885D01*
X152544000Y-102024885D01*
X152548475Y-102040124D01*
X152549865Y-102041329D01*
X152557548Y-102043000D01*
X152573766Y-102043000D01*
X152580282Y-102042663D01*
X152674132Y-102032925D01*
X152687528Y-102030032D01*
X152838953Y-101979512D01*
X152852115Y-101973347D01*
X152987492Y-101889574D01*
X152998890Y-101880540D01*
X153111363Y-101767871D01*
X153120375Y-101756460D01*
X153145644Y-101715466D01*
X155958257Y-101715466D01*
X155988565Y-101849946D01*
X155991645Y-101859775D01*
X156071770Y-102057103D01*
X156076413Y-102066294D01*
X156187694Y-102247888D01*
X156193777Y-102256199D01*
X156333213Y-102417167D01*
X156340580Y-102424383D01*
X156504434Y-102560416D01*
X156512881Y-102566331D01*
X156696756Y-102673779D01*
X156706042Y-102678229D01*
X156905001Y-102754203D01*
X156914899Y-102757079D01*
X157018250Y-102778106D01*
X157032299Y-102776910D01*
X157036000Y-102766565D01*
X157036000Y-102766017D01*
X157544000Y-102766017D01*
X157548064Y-102779859D01*
X157561478Y-102781893D01*
X157568184Y-102781034D01*
X157578262Y-102778892D01*
X157782255Y-102717691D01*
X157791842Y-102713933D01*
X157983095Y-102620239D01*
X157991945Y-102614964D01*
X158165328Y-102491292D01*
X158173200Y-102484639D01*
X158324052Y-102334312D01*
X158330730Y-102326465D01*
X158455003Y-102153520D01*
X158460313Y-102144683D01*
X158554670Y-101953767D01*
X158558469Y-101944172D01*
X158620377Y-101740410D01*
X158622555Y-101730337D01*
X158623986Y-101719462D01*
X158621775Y-101705278D01*
X158608617Y-101701500D01*
X157562115Y-101701500D01*
X157546876Y-101705975D01*
X157545671Y-101707365D01*
X157544000Y-101715048D01*
X157544000Y-102766017D01*
X157036000Y-102766017D01*
X157036000Y-101719615D01*
X157031525Y-101704376D01*
X157030135Y-101703171D01*
X157022452Y-101701500D01*
X155973225Y-101701500D01*
X155959694Y-101705473D01*
X155958257Y-101715466D01*
X153145644Y-101715466D01*
X153203912Y-101620937D01*
X153210056Y-101607759D01*
X153221885Y-101572095D01*
X164222001Y-101572095D01*
X164222338Y-101578614D01*
X164232257Y-101674206D01*
X164235149Y-101687600D01*
X164286588Y-101841784D01*
X164292761Y-101854962D01*
X164378063Y-101992807D01*
X164387099Y-102004208D01*
X164501829Y-102118739D01*
X164513240Y-102127751D01*
X164651243Y-102212816D01*
X164664424Y-102218963D01*
X164818710Y-102270138D01*
X164832086Y-102273005D01*
X164926438Y-102282672D01*
X164932854Y-102283000D01*
X165157885Y-102283000D01*
X165173124Y-102278525D01*
X165174329Y-102277135D01*
X165176000Y-102269452D01*
X165176000Y-102264884D01*
X165684000Y-102264884D01*
X165688475Y-102280123D01*
X165689865Y-102281328D01*
X165697548Y-102282999D01*
X165927095Y-102282999D01*
X165933614Y-102282662D01*
X166029206Y-102272743D01*
X166042600Y-102269851D01*
X166196784Y-102218412D01*
X166209962Y-102212239D01*
X166347807Y-102126937D01*
X166359208Y-102117901D01*
X166473739Y-102003171D01*
X166482751Y-101991760D01*
X166567816Y-101853757D01*
X166573963Y-101840576D01*
X166625138Y-101686290D01*
X166628005Y-101672914D01*
X166637672Y-101578562D01*
X166638000Y-101572146D01*
X166638000Y-101472115D01*
X166633525Y-101456876D01*
X166632135Y-101455671D01*
X166624452Y-101454000D01*
X165702115Y-101454000D01*
X165686876Y-101458475D01*
X165685671Y-101459865D01*
X165684000Y-101467548D01*
X165684000Y-102264884D01*
X165176000Y-102264884D01*
X165176000Y-101472115D01*
X165171525Y-101456876D01*
X165170135Y-101455671D01*
X165162452Y-101454000D01*
X164240116Y-101454000D01*
X164224877Y-101458475D01*
X164223672Y-101459865D01*
X164222001Y-101467548D01*
X164222001Y-101572095D01*
X153221885Y-101572095D01*
X153260315Y-101456234D01*
X153263181Y-101442868D01*
X153269236Y-101383766D01*
X169447000Y-101383766D01*
X169447337Y-101390282D01*
X169457075Y-101484132D01*
X169459968Y-101497528D01*
X169510488Y-101648953D01*
X169516653Y-101662115D01*
X169600426Y-101797492D01*
X169609460Y-101808890D01*
X169722129Y-101921363D01*
X169733540Y-101930375D01*
X169869063Y-102013912D01*
X169882241Y-102020056D01*
X170033766Y-102070315D01*
X170047132Y-102073181D01*
X170139770Y-102082672D01*
X170146185Y-102083000D01*
X170157885Y-102083000D01*
X170173124Y-102078525D01*
X170174329Y-102077135D01*
X170176000Y-102069452D01*
X170176000Y-102064885D01*
X170684000Y-102064885D01*
X170688475Y-102080124D01*
X170689865Y-102081329D01*
X170697548Y-102083000D01*
X170713766Y-102083000D01*
X170720282Y-102082663D01*
X170814132Y-102072925D01*
X170827528Y-102070032D01*
X170978953Y-102019512D01*
X170992115Y-102013347D01*
X171127492Y-101929574D01*
X171138890Y-101920540D01*
X171251363Y-101807871D01*
X171260375Y-101796460D01*
X171310300Y-101715466D01*
X174098257Y-101715466D01*
X174128565Y-101849946D01*
X174131645Y-101859775D01*
X174211770Y-102057103D01*
X174216413Y-102066294D01*
X174327694Y-102247888D01*
X174333777Y-102256199D01*
X174473213Y-102417167D01*
X174480580Y-102424383D01*
X174644434Y-102560416D01*
X174652881Y-102566331D01*
X174836756Y-102673779D01*
X174846042Y-102678229D01*
X175045001Y-102754203D01*
X175054899Y-102757079D01*
X175158250Y-102778106D01*
X175172299Y-102776910D01*
X175176000Y-102766565D01*
X175176000Y-102766017D01*
X175684000Y-102766017D01*
X175688064Y-102779859D01*
X175701478Y-102781893D01*
X175708184Y-102781034D01*
X175718262Y-102778892D01*
X175922255Y-102717691D01*
X175931842Y-102713933D01*
X176123095Y-102620239D01*
X176131945Y-102614964D01*
X176305328Y-102491292D01*
X176313200Y-102484639D01*
X176464052Y-102334312D01*
X176470730Y-102326465D01*
X176595003Y-102153520D01*
X176600313Y-102144683D01*
X176694670Y-101953767D01*
X176698469Y-101944172D01*
X176760377Y-101740410D01*
X176762555Y-101730337D01*
X176763986Y-101719462D01*
X176761775Y-101705278D01*
X176748617Y-101701500D01*
X175702115Y-101701500D01*
X175686876Y-101705975D01*
X175685671Y-101707365D01*
X175684000Y-101715048D01*
X175684000Y-102766017D01*
X175176000Y-102766017D01*
X175176000Y-101719615D01*
X175171525Y-101704376D01*
X175170135Y-101703171D01*
X175162452Y-101701500D01*
X174113225Y-101701500D01*
X174099694Y-101705473D01*
X174098257Y-101715466D01*
X171310300Y-101715466D01*
X171343912Y-101660937D01*
X171350056Y-101647759D01*
X171388420Y-101532095D01*
X182362001Y-101532095D01*
X182362338Y-101538614D01*
X182372257Y-101634206D01*
X182375149Y-101647600D01*
X182426588Y-101801784D01*
X182432761Y-101814962D01*
X182518063Y-101952807D01*
X182527099Y-101964208D01*
X182641829Y-102078739D01*
X182653240Y-102087751D01*
X182791243Y-102172816D01*
X182804424Y-102178963D01*
X182958710Y-102230138D01*
X182972086Y-102233005D01*
X183066438Y-102242672D01*
X183072854Y-102243000D01*
X183297885Y-102243000D01*
X183313124Y-102238525D01*
X183314329Y-102237135D01*
X183316000Y-102229452D01*
X183316000Y-102224884D01*
X183824000Y-102224884D01*
X183828475Y-102240123D01*
X183829865Y-102241328D01*
X183837548Y-102242999D01*
X184067095Y-102242999D01*
X184073614Y-102242662D01*
X184169206Y-102232743D01*
X184182600Y-102229851D01*
X184336784Y-102178412D01*
X184349962Y-102172239D01*
X184487807Y-102086937D01*
X184499208Y-102077901D01*
X184613739Y-101963171D01*
X184622751Y-101951760D01*
X184707816Y-101813757D01*
X184713963Y-101800576D01*
X184765138Y-101646290D01*
X184768005Y-101632914D01*
X184777672Y-101538562D01*
X184778000Y-101532146D01*
X184778000Y-101432115D01*
X184773525Y-101416876D01*
X184772135Y-101415671D01*
X184764452Y-101414000D01*
X183842115Y-101414000D01*
X183826876Y-101418475D01*
X183825671Y-101419865D01*
X183824000Y-101427548D01*
X183824000Y-102224884D01*
X183316000Y-102224884D01*
X183316000Y-101432115D01*
X183311525Y-101416876D01*
X183310135Y-101415671D01*
X183302452Y-101414000D01*
X182380116Y-101414000D01*
X182364877Y-101418475D01*
X182363672Y-101419865D01*
X182362001Y-101427548D01*
X182362001Y-101532095D01*
X171388420Y-101532095D01*
X171400315Y-101496234D01*
X171403181Y-101482868D01*
X171412672Y-101390230D01*
X171413000Y-101383815D01*
X171413000Y-101343766D01*
X187587000Y-101343766D01*
X187587337Y-101350282D01*
X187597075Y-101444132D01*
X187599968Y-101457528D01*
X187650488Y-101608953D01*
X187656653Y-101622115D01*
X187740426Y-101757492D01*
X187749460Y-101768890D01*
X187862129Y-101881363D01*
X187873540Y-101890375D01*
X188009063Y-101973912D01*
X188022241Y-101980056D01*
X188173766Y-102030315D01*
X188187132Y-102033181D01*
X188279770Y-102042672D01*
X188286185Y-102043000D01*
X188297885Y-102043000D01*
X188313124Y-102038525D01*
X188314329Y-102037135D01*
X188316000Y-102029452D01*
X188316000Y-102024885D01*
X188824000Y-102024885D01*
X188828475Y-102040124D01*
X188829865Y-102041329D01*
X188837548Y-102043000D01*
X188853766Y-102043000D01*
X188860282Y-102042663D01*
X188954132Y-102032925D01*
X188967528Y-102030032D01*
X189118953Y-101979512D01*
X189132115Y-101973347D01*
X189267492Y-101889574D01*
X189278890Y-101880540D01*
X189391363Y-101767871D01*
X189400375Y-101756460D01*
X189425644Y-101715466D01*
X192238257Y-101715466D01*
X192268565Y-101849946D01*
X192271645Y-101859775D01*
X192351770Y-102057103D01*
X192356413Y-102066294D01*
X192467694Y-102247888D01*
X192473777Y-102256199D01*
X192613213Y-102417167D01*
X192620580Y-102424383D01*
X192784434Y-102560416D01*
X192792881Y-102566331D01*
X192976756Y-102673779D01*
X192986042Y-102678229D01*
X193185001Y-102754203D01*
X193194899Y-102757079D01*
X193298250Y-102778106D01*
X193312299Y-102776910D01*
X193316000Y-102766565D01*
X193316000Y-102766017D01*
X193824000Y-102766017D01*
X193828064Y-102779859D01*
X193841478Y-102781893D01*
X193848184Y-102781034D01*
X193858262Y-102778892D01*
X194062255Y-102717691D01*
X194071842Y-102713933D01*
X194263095Y-102620239D01*
X194271945Y-102614964D01*
X194445328Y-102491292D01*
X194453200Y-102484639D01*
X194604052Y-102334312D01*
X194610730Y-102326465D01*
X194735003Y-102153520D01*
X194740313Y-102144683D01*
X194834670Y-101953767D01*
X194838469Y-101944172D01*
X194900377Y-101740410D01*
X194902555Y-101730337D01*
X194903986Y-101719462D01*
X194901775Y-101705278D01*
X194888617Y-101701500D01*
X193842115Y-101701500D01*
X193826876Y-101705975D01*
X193825671Y-101707365D01*
X193824000Y-101715048D01*
X193824000Y-102766017D01*
X193316000Y-102766017D01*
X193316000Y-101719615D01*
X193311525Y-101704376D01*
X193310135Y-101703171D01*
X193302452Y-101701500D01*
X192253225Y-101701500D01*
X192239694Y-101705473D01*
X192238257Y-101715466D01*
X189425644Y-101715466D01*
X189483912Y-101620937D01*
X189490056Y-101607759D01*
X189540315Y-101456234D01*
X189543181Y-101442868D01*
X189552672Y-101350230D01*
X189553000Y-101343815D01*
X189553000Y-101282115D01*
X189548525Y-101266876D01*
X189547135Y-101265671D01*
X189539452Y-101264000D01*
X188842115Y-101264000D01*
X188826876Y-101268475D01*
X188825671Y-101269865D01*
X188824000Y-101277548D01*
X188824000Y-102024885D01*
X188316000Y-102024885D01*
X188316000Y-101282115D01*
X188311525Y-101266876D01*
X188310135Y-101265671D01*
X188302452Y-101264000D01*
X187605115Y-101264000D01*
X187589876Y-101268475D01*
X187588671Y-101269865D01*
X187587000Y-101277548D01*
X187587000Y-101343766D01*
X171413000Y-101343766D01*
X171413000Y-101322115D01*
X171408525Y-101306876D01*
X171407135Y-101305671D01*
X171399452Y-101304000D01*
X170702115Y-101304000D01*
X170686876Y-101308475D01*
X170685671Y-101309865D01*
X170684000Y-101317548D01*
X170684000Y-102064885D01*
X170176000Y-102064885D01*
X170176000Y-101322115D01*
X170171525Y-101306876D01*
X170170135Y-101305671D01*
X170162452Y-101304000D01*
X169465115Y-101304000D01*
X169449876Y-101308475D01*
X169448671Y-101309865D01*
X169447000Y-101317548D01*
X169447000Y-101383766D01*
X153269236Y-101383766D01*
X153272672Y-101350230D01*
X153273000Y-101343815D01*
X153273000Y-101282115D01*
X153268525Y-101266876D01*
X153267135Y-101265671D01*
X153259452Y-101264000D01*
X152562115Y-101264000D01*
X152546876Y-101268475D01*
X152545671Y-101269865D01*
X152544000Y-101277548D01*
X152544000Y-102024885D01*
X152036000Y-102024885D01*
X152036000Y-101282115D01*
X152031525Y-101266876D01*
X152030135Y-101265671D01*
X152022452Y-101264000D01*
X151325115Y-101264000D01*
X151309876Y-101268475D01*
X151308671Y-101269865D01*
X151307000Y-101277548D01*
X151307000Y-101343766D01*
X135133000Y-101343766D01*
X135133000Y-101282115D01*
X135128525Y-101266876D01*
X135127135Y-101265671D01*
X135119452Y-101264000D01*
X134422115Y-101264000D01*
X134406876Y-101268475D01*
X134405671Y-101269865D01*
X134404000Y-101277548D01*
X134404000Y-102024885D01*
X133896000Y-102024885D01*
X133896000Y-101282115D01*
X133891525Y-101266876D01*
X133890135Y-101265671D01*
X133882452Y-101264000D01*
X133185115Y-101264000D01*
X133169876Y-101268475D01*
X133168671Y-101269865D01*
X133167000Y-101277548D01*
X133167000Y-101343766D01*
X116993000Y-101343766D01*
X116993000Y-101282115D01*
X116988525Y-101266876D01*
X116987135Y-101265671D01*
X116979452Y-101264000D01*
X116282115Y-101264000D01*
X116266876Y-101268475D01*
X116265671Y-101269865D01*
X116264000Y-101277548D01*
X116264000Y-102024885D01*
X115756000Y-102024885D01*
X115756000Y-101282115D01*
X115751525Y-101266876D01*
X115750135Y-101265671D01*
X115742452Y-101264000D01*
X115045115Y-101264000D01*
X115029876Y-101268475D01*
X115028671Y-101269865D01*
X115027000Y-101277548D01*
X115027000Y-101343766D01*
X108828500Y-101343766D01*
X108828500Y-99485400D01*
X109801500Y-99485400D01*
X109801837Y-99488646D01*
X109801837Y-99488650D01*
X109805988Y-99528650D01*
X109812474Y-99591166D01*
X109868450Y-99758946D01*
X109961522Y-99909348D01*
X110086697Y-100034305D01*
X110091235Y-100037102D01*
X110131824Y-100094353D01*
X110135054Y-100165276D01*
X110099428Y-100226687D01*
X110090932Y-100234062D01*
X110080793Y-100242098D01*
X109966261Y-100356829D01*
X109957249Y-100368240D01*
X109872184Y-100506243D01*
X109866037Y-100519424D01*
X109814862Y-100673710D01*
X109811995Y-100687086D01*
X109802328Y-100781438D01*
X109802000Y-100787855D01*
X109802000Y-100887885D01*
X109806475Y-100903124D01*
X109807865Y-100904329D01*
X109815548Y-100906000D01*
X112199884Y-100906000D01*
X112215123Y-100901525D01*
X112216328Y-100900135D01*
X112217999Y-100892452D01*
X112217999Y-100787905D01*
X112217662Y-100781386D01*
X112207743Y-100685794D01*
X112204851Y-100672400D01*
X112153412Y-100518216D01*
X112147239Y-100505038D01*
X112061937Y-100367193D01*
X112052901Y-100355792D01*
X111932991Y-100236090D01*
X111934566Y-100234512D01*
X111899791Y-100185456D01*
X111896564Y-100114533D01*
X111932194Y-100053124D01*
X111995368Y-100020726D01*
X112018949Y-100018500D01*
X115118043Y-100018500D01*
X115186164Y-100038502D01*
X115232657Y-100092158D01*
X115242761Y-100162432D01*
X115213267Y-100227012D01*
X115207215Y-100233519D01*
X115188637Y-100252129D01*
X115179625Y-100263540D01*
X115096088Y-100399063D01*
X115089944Y-100412241D01*
X115039685Y-100563766D01*
X115036819Y-100577132D01*
X115027328Y-100669770D01*
X115027000Y-100676185D01*
X115027000Y-100737885D01*
X115031475Y-100753124D01*
X115032865Y-100754329D01*
X115040548Y-100756000D01*
X116974885Y-100756000D01*
X116990124Y-100751525D01*
X116991329Y-100750135D01*
X116993000Y-100742452D01*
X116993000Y-100676234D01*
X116992663Y-100669718D01*
X116982925Y-100575868D01*
X116980032Y-100562472D01*
X116929512Y-100411047D01*
X116923347Y-100397885D01*
X116839574Y-100262508D01*
X116830536Y-100251105D01*
X116803860Y-100224475D01*
X116769781Y-100162193D01*
X116774784Y-100091373D01*
X116803705Y-100046285D01*
X116811475Y-100038502D01*
X116836929Y-100013003D01*
X116880006Y-99943120D01*
X116924369Y-99871150D01*
X116924370Y-99871148D01*
X116928209Y-99864920D01*
X116965553Y-99752332D01*
X117005984Y-99693973D01*
X117071548Y-99666736D01*
X117085146Y-99666000D01*
X119525500Y-99666000D01*
X119593621Y-99686002D01*
X119640114Y-99739658D01*
X119651500Y-99791998D01*
X119651500Y-99805634D01*
X119658255Y-99867816D01*
X119709385Y-100004205D01*
X119796739Y-100120761D01*
X119913295Y-100208115D01*
X119921704Y-100211267D01*
X119921705Y-100211268D01*
X120030960Y-100252226D01*
X120087725Y-100294867D01*
X120112425Y-100361429D01*
X120097218Y-100430778D01*
X120077825Y-100457259D01*
X119954590Y-100586217D01*
X119948104Y-100594227D01*
X119828098Y-100770149D01*
X119823000Y-100779123D01*
X119733338Y-100972283D01*
X119729775Y-100981970D01*
X119674389Y-101181683D01*
X119675912Y-101190107D01*
X119688292Y-101193500D01*
X122328344Y-101193500D01*
X122341875Y-101189527D01*
X122343180Y-101180447D01*
X122301214Y-101013375D01*
X122297894Y-101003624D01*
X122212972Y-100808314D01*
X122208105Y-100799239D01*
X122092426Y-100620426D01*
X122086136Y-100612257D01*
X121942293Y-100454177D01*
X121911241Y-100390331D01*
X121919635Y-100319833D01*
X121964812Y-100265064D01*
X121991256Y-100251395D01*
X122098297Y-100211267D01*
X122106705Y-100208115D01*
X122223261Y-100120761D01*
X122310615Y-100004205D01*
X122361745Y-99867816D01*
X122368500Y-99805634D01*
X122368500Y-99485400D01*
X127941500Y-99485400D01*
X127941837Y-99488646D01*
X127941837Y-99488650D01*
X127945988Y-99528650D01*
X127952474Y-99591166D01*
X128008450Y-99758946D01*
X128101522Y-99909348D01*
X128226697Y-100034305D01*
X128231235Y-100037102D01*
X128271824Y-100094353D01*
X128275054Y-100165276D01*
X128239428Y-100226687D01*
X128230932Y-100234062D01*
X128220793Y-100242098D01*
X128106261Y-100356829D01*
X128097249Y-100368240D01*
X128012184Y-100506243D01*
X128006037Y-100519424D01*
X127954862Y-100673710D01*
X127951995Y-100687086D01*
X127942328Y-100781438D01*
X127942000Y-100787855D01*
X127942000Y-100887885D01*
X127946475Y-100903124D01*
X127947865Y-100904329D01*
X127955548Y-100906000D01*
X130339884Y-100906000D01*
X130355123Y-100901525D01*
X130356328Y-100900135D01*
X130357999Y-100892452D01*
X130357999Y-100787905D01*
X130357662Y-100781386D01*
X130347743Y-100685794D01*
X130344851Y-100672400D01*
X130293412Y-100518216D01*
X130287239Y-100505038D01*
X130201937Y-100367193D01*
X130192901Y-100355792D01*
X130078172Y-100241262D01*
X130069238Y-100234206D01*
X130028177Y-100176288D01*
X130024947Y-100105365D01*
X130060574Y-100043954D01*
X130068407Y-100037154D01*
X130074348Y-100033478D01*
X130101008Y-100006772D01*
X130199305Y-99908303D01*
X130200945Y-99909941D01*
X130249744Y-99875344D01*
X130290706Y-99868500D01*
X133163624Y-99868500D01*
X133231745Y-99888502D01*
X133270768Y-99928197D01*
X133319392Y-100006772D01*
X133323884Y-100014031D01*
X133356141Y-100046231D01*
X133390220Y-100108512D01*
X133385218Y-100179332D01*
X133356296Y-100224422D01*
X133328637Y-100252129D01*
X133319625Y-100263540D01*
X133236088Y-100399063D01*
X133229944Y-100412241D01*
X133179685Y-100563766D01*
X133176819Y-100577132D01*
X133167328Y-100669770D01*
X133167000Y-100676185D01*
X133167000Y-100737885D01*
X133171475Y-100753124D01*
X133172865Y-100754329D01*
X133180548Y-100756000D01*
X135114885Y-100756000D01*
X135130124Y-100751525D01*
X135131329Y-100750135D01*
X135133000Y-100742452D01*
X135133000Y-100676234D01*
X135132663Y-100669718D01*
X135122925Y-100575868D01*
X135120032Y-100562472D01*
X135069512Y-100411047D01*
X135063347Y-100397885D01*
X134979574Y-100262508D01*
X134970536Y-100251105D01*
X134943860Y-100224475D01*
X134909781Y-100162193D01*
X134914784Y-100091373D01*
X134943705Y-100046285D01*
X134951475Y-100038502D01*
X134976929Y-100013003D01*
X135020006Y-99943120D01*
X135064369Y-99871150D01*
X135064370Y-99871148D01*
X135068209Y-99864920D01*
X135105553Y-99752332D01*
X135145984Y-99693973D01*
X135211548Y-99666736D01*
X135225146Y-99666000D01*
X137665500Y-99666000D01*
X137733621Y-99686002D01*
X137780114Y-99739658D01*
X137791500Y-99791998D01*
X137791500Y-99805634D01*
X137798255Y-99867816D01*
X137849385Y-100004205D01*
X137936739Y-100120761D01*
X138053295Y-100208115D01*
X138061704Y-100211267D01*
X138061705Y-100211268D01*
X138170960Y-100252226D01*
X138227725Y-100294867D01*
X138252425Y-100361429D01*
X138237218Y-100430778D01*
X138217825Y-100457259D01*
X138094590Y-100586217D01*
X138088104Y-100594227D01*
X137968098Y-100770149D01*
X137963000Y-100779123D01*
X137873338Y-100972283D01*
X137869775Y-100981970D01*
X137814389Y-101181683D01*
X137815912Y-101190107D01*
X137828292Y-101193500D01*
X140468344Y-101193500D01*
X140481875Y-101189527D01*
X140483180Y-101180447D01*
X140441214Y-101013375D01*
X140437894Y-101003624D01*
X140352972Y-100808314D01*
X140348105Y-100799239D01*
X140232426Y-100620426D01*
X140226136Y-100612257D01*
X140082293Y-100454177D01*
X140051241Y-100390331D01*
X140059635Y-100319833D01*
X140104812Y-100265064D01*
X140131256Y-100251395D01*
X140238297Y-100211267D01*
X140246705Y-100208115D01*
X140363261Y-100120761D01*
X140450615Y-100004205D01*
X140501745Y-99867816D01*
X140508500Y-99805634D01*
X140508500Y-99485400D01*
X146081500Y-99485400D01*
X146081837Y-99488646D01*
X146081837Y-99488650D01*
X146085988Y-99528650D01*
X146092474Y-99591166D01*
X146148450Y-99758946D01*
X146241522Y-99909348D01*
X146366697Y-100034305D01*
X146371235Y-100037102D01*
X146411824Y-100094353D01*
X146415054Y-100165276D01*
X146379428Y-100226687D01*
X146370932Y-100234062D01*
X146360793Y-100242098D01*
X146246261Y-100356829D01*
X146237249Y-100368240D01*
X146152184Y-100506243D01*
X146146037Y-100519424D01*
X146094862Y-100673710D01*
X146091995Y-100687086D01*
X146082328Y-100781438D01*
X146082000Y-100787855D01*
X146082000Y-100887885D01*
X146086475Y-100903124D01*
X146087865Y-100904329D01*
X146095548Y-100906000D01*
X148479884Y-100906000D01*
X148495123Y-100901525D01*
X148496328Y-100900135D01*
X148497999Y-100892452D01*
X148497999Y-100787905D01*
X148497662Y-100781386D01*
X148487743Y-100685794D01*
X148484851Y-100672400D01*
X148433412Y-100518216D01*
X148427239Y-100505038D01*
X148341937Y-100367193D01*
X148332901Y-100355792D01*
X148212991Y-100236090D01*
X148214566Y-100234512D01*
X148179791Y-100185456D01*
X148176564Y-100114533D01*
X148212194Y-100053124D01*
X148275368Y-100020726D01*
X148298949Y-100018500D01*
X151398043Y-100018500D01*
X151466164Y-100038502D01*
X151512657Y-100092158D01*
X151522761Y-100162432D01*
X151493267Y-100227012D01*
X151487215Y-100233519D01*
X151468637Y-100252129D01*
X151459625Y-100263540D01*
X151376088Y-100399063D01*
X151369944Y-100412241D01*
X151319685Y-100563766D01*
X151316819Y-100577132D01*
X151307328Y-100669770D01*
X151307000Y-100676185D01*
X151307000Y-100737885D01*
X151311475Y-100753124D01*
X151312865Y-100754329D01*
X151320548Y-100756000D01*
X153254885Y-100756000D01*
X153270124Y-100751525D01*
X153271329Y-100750135D01*
X153273000Y-100742452D01*
X153273000Y-100676234D01*
X153272663Y-100669718D01*
X153262925Y-100575868D01*
X153260032Y-100562472D01*
X153209512Y-100411047D01*
X153203347Y-100397885D01*
X153119574Y-100262508D01*
X153110536Y-100251105D01*
X153083860Y-100224475D01*
X153049781Y-100162193D01*
X153054784Y-100091373D01*
X153083705Y-100046285D01*
X153091475Y-100038502D01*
X153116929Y-100013003D01*
X153160006Y-99943120D01*
X153204369Y-99871150D01*
X153204370Y-99871148D01*
X153208209Y-99864920D01*
X153245553Y-99752332D01*
X153285984Y-99693973D01*
X153351548Y-99666736D01*
X153365146Y-99666000D01*
X155805500Y-99666000D01*
X155873621Y-99686002D01*
X155920114Y-99739658D01*
X155931500Y-99791998D01*
X155931500Y-99805634D01*
X155938255Y-99867816D01*
X155989385Y-100004205D01*
X156076739Y-100120761D01*
X156193295Y-100208115D01*
X156201704Y-100211267D01*
X156201705Y-100211268D01*
X156310960Y-100252226D01*
X156367725Y-100294867D01*
X156392425Y-100361429D01*
X156377218Y-100430778D01*
X156357825Y-100457259D01*
X156234590Y-100586217D01*
X156228104Y-100594227D01*
X156108098Y-100770149D01*
X156103000Y-100779123D01*
X156013338Y-100972283D01*
X156009775Y-100981970D01*
X155954389Y-101181683D01*
X155955912Y-101190107D01*
X155968292Y-101193500D01*
X158608344Y-101193500D01*
X158621875Y-101189527D01*
X158623180Y-101180447D01*
X158581214Y-101013375D01*
X158577894Y-101003624D01*
X158492972Y-100808314D01*
X158488105Y-100799239D01*
X158372426Y-100620426D01*
X158366136Y-100612257D01*
X158222293Y-100454177D01*
X158191241Y-100390331D01*
X158199635Y-100319833D01*
X158244812Y-100265064D01*
X158271256Y-100251395D01*
X158378297Y-100211267D01*
X158386705Y-100208115D01*
X158503261Y-100120761D01*
X158590615Y-100004205D01*
X158641745Y-99867816D01*
X158648500Y-99805634D01*
X158648500Y-99525400D01*
X164221500Y-99525400D01*
X164221837Y-99528646D01*
X164221837Y-99528650D01*
X164228324Y-99591166D01*
X164232474Y-99631166D01*
X164234655Y-99637702D01*
X164234655Y-99637704D01*
X164244341Y-99666736D01*
X164288450Y-99798946D01*
X164381522Y-99949348D01*
X164506697Y-100074305D01*
X164511235Y-100077102D01*
X164551824Y-100134353D01*
X164555054Y-100205276D01*
X164519428Y-100266687D01*
X164510932Y-100274062D01*
X164500793Y-100282098D01*
X164386261Y-100396829D01*
X164377249Y-100408240D01*
X164292184Y-100546243D01*
X164286037Y-100559424D01*
X164234862Y-100713710D01*
X164231995Y-100727086D01*
X164222328Y-100821438D01*
X164222000Y-100827855D01*
X164222000Y-100927885D01*
X164226475Y-100943124D01*
X164227865Y-100944329D01*
X164235548Y-100946000D01*
X166619884Y-100946000D01*
X166635123Y-100941525D01*
X166636328Y-100940135D01*
X166637999Y-100932452D01*
X166637999Y-100827905D01*
X166637662Y-100821386D01*
X166627743Y-100725794D01*
X166624851Y-100712400D01*
X166573412Y-100558216D01*
X166567239Y-100545038D01*
X166481937Y-100407193D01*
X166472901Y-100395792D01*
X166352991Y-100276090D01*
X166354566Y-100274512D01*
X166319791Y-100225456D01*
X166316564Y-100154533D01*
X166352194Y-100093124D01*
X166415368Y-100060726D01*
X166438949Y-100058500D01*
X169538043Y-100058500D01*
X169606164Y-100078502D01*
X169652657Y-100132158D01*
X169662761Y-100202432D01*
X169633267Y-100267012D01*
X169627215Y-100273519D01*
X169608637Y-100292129D01*
X169599625Y-100303540D01*
X169516088Y-100439063D01*
X169509944Y-100452241D01*
X169459685Y-100603766D01*
X169456819Y-100617132D01*
X169447328Y-100709770D01*
X169447000Y-100716185D01*
X169447000Y-100777885D01*
X169451475Y-100793124D01*
X169452865Y-100794329D01*
X169460548Y-100796000D01*
X171394885Y-100796000D01*
X171410124Y-100791525D01*
X171411329Y-100790135D01*
X171413000Y-100782452D01*
X171413000Y-100716234D01*
X171412663Y-100709718D01*
X171402925Y-100615868D01*
X171400032Y-100602472D01*
X171349512Y-100451047D01*
X171343347Y-100437885D01*
X171259574Y-100302508D01*
X171250536Y-100291105D01*
X171223860Y-100264475D01*
X171189781Y-100202193D01*
X171194784Y-100131373D01*
X171223705Y-100086285D01*
X171231475Y-100078502D01*
X171256929Y-100053003D01*
X171268455Y-100034305D01*
X171344369Y-99911150D01*
X171344370Y-99911148D01*
X171348209Y-99904920D01*
X171398820Y-99752333D01*
X171439251Y-99693973D01*
X171504815Y-99666736D01*
X171518413Y-99666000D01*
X173945500Y-99666000D01*
X174013621Y-99686002D01*
X174060114Y-99739658D01*
X174071500Y-99791998D01*
X174071500Y-99805634D01*
X174078255Y-99867816D01*
X174129385Y-100004205D01*
X174216739Y-100120761D01*
X174333295Y-100208115D01*
X174341704Y-100211267D01*
X174341705Y-100211268D01*
X174450960Y-100252226D01*
X174507725Y-100294867D01*
X174532425Y-100361429D01*
X174517218Y-100430778D01*
X174497825Y-100457259D01*
X174374590Y-100586217D01*
X174368104Y-100594227D01*
X174248098Y-100770149D01*
X174243000Y-100779123D01*
X174153338Y-100972283D01*
X174149775Y-100981970D01*
X174094389Y-101181683D01*
X174095912Y-101190107D01*
X174108292Y-101193500D01*
X176748344Y-101193500D01*
X176761875Y-101189527D01*
X176763180Y-101180447D01*
X176721214Y-101013375D01*
X176717894Y-101003624D01*
X176632972Y-100808314D01*
X176628105Y-100799239D01*
X176512426Y-100620426D01*
X176506136Y-100612257D01*
X176362293Y-100454177D01*
X176331241Y-100390331D01*
X176339635Y-100319833D01*
X176384812Y-100265064D01*
X176411256Y-100251395D01*
X176518297Y-100211267D01*
X176526705Y-100208115D01*
X176643261Y-100120761D01*
X176730615Y-100004205D01*
X176781745Y-99867816D01*
X176788500Y-99805634D01*
X176788500Y-99485400D01*
X182361500Y-99485400D01*
X182361837Y-99488646D01*
X182361837Y-99488650D01*
X182365988Y-99528650D01*
X182372474Y-99591166D01*
X182428450Y-99758946D01*
X182521522Y-99909348D01*
X182646697Y-100034305D01*
X182651235Y-100037102D01*
X182691824Y-100094353D01*
X182695054Y-100165276D01*
X182659428Y-100226687D01*
X182650932Y-100234062D01*
X182640793Y-100242098D01*
X182526261Y-100356829D01*
X182517249Y-100368240D01*
X182432184Y-100506243D01*
X182426037Y-100519424D01*
X182374862Y-100673710D01*
X182371995Y-100687086D01*
X182362328Y-100781438D01*
X182362000Y-100787855D01*
X182362000Y-100887885D01*
X182366475Y-100903124D01*
X182367865Y-100904329D01*
X182375548Y-100906000D01*
X184759884Y-100906000D01*
X184775123Y-100901525D01*
X184776328Y-100900135D01*
X184777999Y-100892452D01*
X184777999Y-100787905D01*
X184777662Y-100781386D01*
X184767743Y-100685794D01*
X184764851Y-100672400D01*
X184713412Y-100518216D01*
X184707239Y-100505038D01*
X184621937Y-100367193D01*
X184612901Y-100355792D01*
X184492991Y-100236090D01*
X184494566Y-100234512D01*
X184459791Y-100185456D01*
X184456564Y-100114533D01*
X184492194Y-100053124D01*
X184555368Y-100020726D01*
X184578949Y-100018500D01*
X187678043Y-100018500D01*
X187746164Y-100038502D01*
X187792657Y-100092158D01*
X187802761Y-100162432D01*
X187773267Y-100227012D01*
X187767215Y-100233519D01*
X187748637Y-100252129D01*
X187739625Y-100263540D01*
X187656088Y-100399063D01*
X187649944Y-100412241D01*
X187599685Y-100563766D01*
X187596819Y-100577132D01*
X187587328Y-100669770D01*
X187587000Y-100676185D01*
X187587000Y-100737885D01*
X187591475Y-100753124D01*
X187592865Y-100754329D01*
X187600548Y-100756000D01*
X189534885Y-100756000D01*
X189550124Y-100751525D01*
X189551329Y-100750135D01*
X189553000Y-100742452D01*
X189553000Y-100676234D01*
X189552663Y-100669718D01*
X189542925Y-100575868D01*
X189540032Y-100562472D01*
X189489512Y-100411047D01*
X189483347Y-100397885D01*
X189399574Y-100262508D01*
X189390536Y-100251105D01*
X189363860Y-100224475D01*
X189329781Y-100162193D01*
X189334784Y-100091373D01*
X189363705Y-100046285D01*
X189371475Y-100038502D01*
X189396929Y-100013003D01*
X189440006Y-99943120D01*
X189484369Y-99871150D01*
X189484370Y-99871148D01*
X189488209Y-99864920D01*
X189525553Y-99752332D01*
X189565984Y-99693973D01*
X189631548Y-99666736D01*
X189645146Y-99666000D01*
X192085500Y-99666000D01*
X192153621Y-99686002D01*
X192200114Y-99739658D01*
X192211500Y-99791998D01*
X192211500Y-99805634D01*
X192218255Y-99867816D01*
X192269385Y-100004205D01*
X192356739Y-100120761D01*
X192473295Y-100208115D01*
X192481704Y-100211267D01*
X192481705Y-100211268D01*
X192590960Y-100252226D01*
X192647725Y-100294867D01*
X192672425Y-100361429D01*
X192657218Y-100430778D01*
X192637825Y-100457259D01*
X192514590Y-100586217D01*
X192508104Y-100594227D01*
X192388098Y-100770149D01*
X192383000Y-100779123D01*
X192293338Y-100972283D01*
X192289775Y-100981970D01*
X192234389Y-101181683D01*
X192235912Y-101190107D01*
X192248292Y-101193500D01*
X194888344Y-101193500D01*
X194901875Y-101189527D01*
X194903180Y-101180447D01*
X194861214Y-101013375D01*
X194857894Y-101003624D01*
X194772972Y-100808314D01*
X194768105Y-100799239D01*
X194652426Y-100620426D01*
X194646136Y-100612257D01*
X194502293Y-100454177D01*
X194471241Y-100390331D01*
X194479635Y-100319833D01*
X194524812Y-100265064D01*
X194551256Y-100251395D01*
X194658297Y-100211267D01*
X194666705Y-100208115D01*
X194783261Y-100120761D01*
X194870615Y-100004205D01*
X194921745Y-99867816D01*
X194928500Y-99805634D01*
X194928500Y-98009366D01*
X194921745Y-97947184D01*
X194870615Y-97810795D01*
X194783261Y-97694239D01*
X194666705Y-97606885D01*
X194530316Y-97555755D01*
X194468134Y-97549000D01*
X192671866Y-97549000D01*
X192609684Y-97555755D01*
X192473295Y-97606885D01*
X192356739Y-97694239D01*
X192269385Y-97810795D01*
X192218255Y-97947184D01*
X192211500Y-98009366D01*
X192211500Y-98023000D01*
X192191498Y-98091121D01*
X192137842Y-98137614D01*
X192085500Y-98149000D01*
X189454500Y-98149000D01*
X189386379Y-98128998D01*
X189339886Y-98075342D01*
X189328500Y-98023000D01*
X189328500Y-80722632D01*
X189348502Y-80654511D01*
X189381331Y-80620054D01*
X189449860Y-80571173D01*
X189608096Y-80413489D01*
X189667594Y-80330689D01*
X189735435Y-80236277D01*
X189738453Y-80232077D01*
X189837430Y-80031811D01*
X189902370Y-79818069D01*
X189931529Y-79596590D01*
X189933156Y-79530000D01*
X189914852Y-79307361D01*
X189860431Y-79090702D01*
X189771354Y-78885840D01*
X189650014Y-78698277D01*
X189646532Y-78694450D01*
X189502798Y-78536488D01*
X189471746Y-78472642D01*
X189480141Y-78402143D01*
X189525317Y-78347375D01*
X189551761Y-78333706D01*
X189658297Y-78293767D01*
X189666705Y-78290615D01*
X189783261Y-78203261D01*
X189870615Y-78086705D01*
X189921745Y-77950316D01*
X189928500Y-77888134D01*
X189928500Y-76091866D01*
X189921745Y-76029684D01*
X189870615Y-75893295D01*
X189783261Y-75776739D01*
X189666705Y-75689385D01*
X189530316Y-75638255D01*
X189468134Y-75631500D01*
X187671866Y-75631500D01*
X187609684Y-75638255D01*
X187473295Y-75689385D01*
X187356739Y-75776739D01*
X187269385Y-75893295D01*
X187218255Y-76029684D01*
X187211500Y-76091866D01*
X187211500Y-77888134D01*
X187218255Y-77950316D01*
X187269385Y-78086705D01*
X187356739Y-78203261D01*
X187473295Y-78290615D01*
X187481704Y-78293767D01*
X187481705Y-78293768D01*
X187590451Y-78334535D01*
X187647216Y-78377176D01*
X187671916Y-78443738D01*
X187656709Y-78513087D01*
X187637316Y-78539568D01*
X187510629Y-78672138D01*
X187384743Y-78856680D01*
X187290688Y-79059305D01*
X187230989Y-79274570D01*
X187207251Y-79496695D01*
X187207548Y-79501848D01*
X187207548Y-79501851D01*
X187213011Y-79596590D01*
X187220110Y-79719715D01*
X187221247Y-79724761D01*
X187221248Y-79724767D01*
X187241119Y-79812939D01*
X187269222Y-79937639D01*
X187353266Y-80144616D01*
X187469987Y-80335088D01*
X187616250Y-80503938D01*
X187765985Y-80628250D01*
X187805620Y-80687152D01*
X187811500Y-80725194D01*
X187811500Y-98375500D01*
X187791498Y-98443621D01*
X187737842Y-98490114D01*
X187685500Y-98501500D01*
X184806781Y-98501500D01*
X184738660Y-98481498D01*
X184699637Y-98441803D01*
X184643878Y-98351697D01*
X184618478Y-98310652D01*
X184493303Y-98185695D01*
X184414802Y-98137306D01*
X184348968Y-98096725D01*
X184348966Y-98096724D01*
X184342738Y-98092885D01*
X184182254Y-98039655D01*
X184181389Y-98039368D01*
X184181387Y-98039368D01*
X184174861Y-98037203D01*
X184168025Y-98036503D01*
X184168022Y-98036502D01*
X184124969Y-98032091D01*
X184070400Y-98026500D01*
X183069600Y-98026500D01*
X183066354Y-98026837D01*
X183066350Y-98026837D01*
X182970692Y-98036762D01*
X182970688Y-98036763D01*
X182963834Y-98037474D01*
X182957298Y-98039655D01*
X182957296Y-98039655D01*
X182825194Y-98083728D01*
X182796054Y-98093450D01*
X182645652Y-98186522D01*
X182520695Y-98311697D01*
X182516855Y-98317927D01*
X182516854Y-98317928D01*
X182439376Y-98443621D01*
X182427885Y-98462262D01*
X182372203Y-98630139D01*
X182361500Y-98734600D01*
X182361500Y-99485400D01*
X176788500Y-99485400D01*
X176788500Y-98009366D01*
X176781745Y-97947184D01*
X176730615Y-97810795D01*
X176643261Y-97694239D01*
X176526705Y-97606885D01*
X176390316Y-97555755D01*
X176328134Y-97549000D01*
X174531866Y-97549000D01*
X174469684Y-97555755D01*
X174333295Y-97606885D01*
X174216739Y-97694239D01*
X174129385Y-97810795D01*
X174078255Y-97947184D01*
X174071500Y-98009366D01*
X174071500Y-98023000D01*
X174051498Y-98091121D01*
X173997842Y-98137614D01*
X173945500Y-98149000D01*
X171314500Y-98149000D01*
X171246379Y-98128998D01*
X171199886Y-98075342D01*
X171188500Y-98023000D01*
X171188500Y-80722632D01*
X171208502Y-80654511D01*
X171241331Y-80620054D01*
X171309860Y-80571173D01*
X171468096Y-80413489D01*
X171527594Y-80330689D01*
X171595435Y-80236277D01*
X171598453Y-80232077D01*
X171697430Y-80031811D01*
X171762370Y-79818069D01*
X171791529Y-79596590D01*
X171793156Y-79530000D01*
X171774852Y-79307361D01*
X171720431Y-79090702D01*
X171631354Y-78885840D01*
X171510014Y-78698277D01*
X171506532Y-78694450D01*
X171362798Y-78536488D01*
X171331746Y-78472642D01*
X171340141Y-78402143D01*
X171385317Y-78347375D01*
X171411761Y-78333706D01*
X171518297Y-78293767D01*
X171526705Y-78290615D01*
X171643261Y-78203261D01*
X171730615Y-78086705D01*
X171781745Y-77950316D01*
X171788500Y-77888134D01*
X171788500Y-76091866D01*
X171781745Y-76029684D01*
X171730615Y-75893295D01*
X171643261Y-75776739D01*
X171526705Y-75689385D01*
X171390316Y-75638255D01*
X171328134Y-75631500D01*
X169531866Y-75631500D01*
X169469684Y-75638255D01*
X169333295Y-75689385D01*
X169216739Y-75776739D01*
X169129385Y-75893295D01*
X169078255Y-76029684D01*
X169071500Y-76091866D01*
X169071500Y-77888134D01*
X169078255Y-77950316D01*
X169129385Y-78086705D01*
X169216739Y-78203261D01*
X169333295Y-78290615D01*
X169341704Y-78293767D01*
X169341705Y-78293768D01*
X169450451Y-78334535D01*
X169507216Y-78377176D01*
X169531916Y-78443738D01*
X169516709Y-78513087D01*
X169497316Y-78539568D01*
X169370629Y-78672138D01*
X169244743Y-78856680D01*
X169150688Y-79059305D01*
X169090989Y-79274570D01*
X169067251Y-79496695D01*
X169067548Y-79501848D01*
X169067548Y-79501851D01*
X169073011Y-79596590D01*
X169080110Y-79719715D01*
X169081247Y-79724761D01*
X169081248Y-79724767D01*
X169101119Y-79812939D01*
X169129222Y-79937639D01*
X169213266Y-80144616D01*
X169329987Y-80335088D01*
X169476250Y-80503938D01*
X169625985Y-80628250D01*
X169665620Y-80687152D01*
X169671500Y-80725194D01*
X169671500Y-98415500D01*
X169651498Y-98483621D01*
X169597842Y-98530114D01*
X169545500Y-98541500D01*
X166666781Y-98541500D01*
X166598660Y-98521498D01*
X166559637Y-98481803D01*
X166482332Y-98356880D01*
X166478478Y-98350652D01*
X166353303Y-98225695D01*
X166289753Y-98186522D01*
X166208968Y-98136725D01*
X166208966Y-98136724D01*
X166202738Y-98132885D01*
X166095470Y-98097306D01*
X166041389Y-98079368D01*
X166041387Y-98079368D01*
X166034861Y-98077203D01*
X166028025Y-98076503D01*
X166028022Y-98076502D01*
X165984969Y-98072091D01*
X165930400Y-98066500D01*
X164929600Y-98066500D01*
X164926354Y-98066837D01*
X164926350Y-98066837D01*
X164830692Y-98076762D01*
X164830688Y-98076763D01*
X164823834Y-98077474D01*
X164817298Y-98079655D01*
X164817296Y-98079655D01*
X164764390Y-98097306D01*
X164656054Y-98133450D01*
X164505652Y-98226522D01*
X164380695Y-98351697D01*
X164376855Y-98357927D01*
X164376854Y-98357928D01*
X164299376Y-98483621D01*
X164287885Y-98502262D01*
X164261436Y-98582005D01*
X164247636Y-98623611D01*
X164232203Y-98670139D01*
X164221500Y-98774600D01*
X164221500Y-99525400D01*
X158648500Y-99525400D01*
X158648500Y-98009366D01*
X158641745Y-97947184D01*
X158590615Y-97810795D01*
X158503261Y-97694239D01*
X158386705Y-97606885D01*
X158250316Y-97555755D01*
X158188134Y-97549000D01*
X156391866Y-97549000D01*
X156329684Y-97555755D01*
X156193295Y-97606885D01*
X156076739Y-97694239D01*
X155989385Y-97810795D01*
X155938255Y-97947184D01*
X155931500Y-98009366D01*
X155931500Y-98023000D01*
X155911498Y-98091121D01*
X155857842Y-98137614D01*
X155805500Y-98149000D01*
X153174500Y-98149000D01*
X153106379Y-98128998D01*
X153059886Y-98075342D01*
X153048500Y-98023000D01*
X153048500Y-80722632D01*
X153068502Y-80654511D01*
X153101331Y-80620054D01*
X153169860Y-80571173D01*
X153328096Y-80413489D01*
X153387594Y-80330689D01*
X153455435Y-80236277D01*
X153458453Y-80232077D01*
X153557430Y-80031811D01*
X153622370Y-79818069D01*
X153651529Y-79596590D01*
X153653156Y-79530000D01*
X153634852Y-79307361D01*
X153580431Y-79090702D01*
X153491354Y-78885840D01*
X153370014Y-78698277D01*
X153366532Y-78694450D01*
X153222798Y-78536488D01*
X153191746Y-78472642D01*
X153200141Y-78402143D01*
X153245317Y-78347375D01*
X153271761Y-78333706D01*
X153378297Y-78293767D01*
X153386705Y-78290615D01*
X153503261Y-78203261D01*
X153590615Y-78086705D01*
X153641745Y-77950316D01*
X153648500Y-77888134D01*
X153648500Y-76091866D01*
X153641745Y-76029684D01*
X153590615Y-75893295D01*
X153503261Y-75776739D01*
X153386705Y-75689385D01*
X153250316Y-75638255D01*
X153188134Y-75631500D01*
X151391866Y-75631500D01*
X151329684Y-75638255D01*
X151193295Y-75689385D01*
X151076739Y-75776739D01*
X150989385Y-75893295D01*
X150938255Y-76029684D01*
X150931500Y-76091866D01*
X150931500Y-77888134D01*
X150938255Y-77950316D01*
X150989385Y-78086705D01*
X151076739Y-78203261D01*
X151193295Y-78290615D01*
X151201704Y-78293767D01*
X151201705Y-78293768D01*
X151310451Y-78334535D01*
X151367216Y-78377176D01*
X151391916Y-78443738D01*
X151376709Y-78513087D01*
X151357316Y-78539568D01*
X151230629Y-78672138D01*
X151104743Y-78856680D01*
X151010688Y-79059305D01*
X150950989Y-79274570D01*
X150927251Y-79496695D01*
X150927548Y-79501848D01*
X150927548Y-79501851D01*
X150933011Y-79596590D01*
X150940110Y-79719715D01*
X150941247Y-79724761D01*
X150941248Y-79724767D01*
X150961119Y-79812939D01*
X150989222Y-79937639D01*
X151073266Y-80144616D01*
X151189987Y-80335088D01*
X151336250Y-80503938D01*
X151485985Y-80628250D01*
X151525620Y-80687152D01*
X151531500Y-80725194D01*
X151531500Y-98375500D01*
X151511498Y-98443621D01*
X151457842Y-98490114D01*
X151405500Y-98501500D01*
X148526781Y-98501500D01*
X148458660Y-98481498D01*
X148419637Y-98441803D01*
X148363878Y-98351697D01*
X148338478Y-98310652D01*
X148213303Y-98185695D01*
X148134802Y-98137306D01*
X148068968Y-98096725D01*
X148068966Y-98096724D01*
X148062738Y-98092885D01*
X147902254Y-98039655D01*
X147901389Y-98039368D01*
X147901387Y-98039368D01*
X147894861Y-98037203D01*
X147888025Y-98036503D01*
X147888022Y-98036502D01*
X147844969Y-98032091D01*
X147790400Y-98026500D01*
X146789600Y-98026500D01*
X146786354Y-98026837D01*
X146786350Y-98026837D01*
X146690692Y-98036762D01*
X146690688Y-98036763D01*
X146683834Y-98037474D01*
X146677298Y-98039655D01*
X146677296Y-98039655D01*
X146545194Y-98083728D01*
X146516054Y-98093450D01*
X146365652Y-98186522D01*
X146240695Y-98311697D01*
X146236855Y-98317927D01*
X146236854Y-98317928D01*
X146159376Y-98443621D01*
X146147885Y-98462262D01*
X146092203Y-98630139D01*
X146081500Y-98734600D01*
X146081500Y-99485400D01*
X140508500Y-99485400D01*
X140508500Y-98009366D01*
X140501745Y-97947184D01*
X140450615Y-97810795D01*
X140363261Y-97694239D01*
X140246705Y-97606885D01*
X140110316Y-97555755D01*
X140048134Y-97549000D01*
X138251866Y-97549000D01*
X138189684Y-97555755D01*
X138053295Y-97606885D01*
X137936739Y-97694239D01*
X137849385Y-97810795D01*
X137798255Y-97947184D01*
X137791500Y-98009366D01*
X137791500Y-98023000D01*
X137771498Y-98091121D01*
X137717842Y-98137614D01*
X137665500Y-98149000D01*
X135034500Y-98149000D01*
X134966379Y-98128998D01*
X134919886Y-98075342D01*
X134908500Y-98023000D01*
X134908500Y-80722632D01*
X134928502Y-80654511D01*
X134961331Y-80620054D01*
X135029860Y-80571173D01*
X135188096Y-80413489D01*
X135247594Y-80330689D01*
X135315435Y-80236277D01*
X135318453Y-80232077D01*
X135417430Y-80031811D01*
X135482370Y-79818069D01*
X135511529Y-79596590D01*
X135513156Y-79530000D01*
X135494852Y-79307361D01*
X135440431Y-79090702D01*
X135351354Y-78885840D01*
X135230014Y-78698277D01*
X135226532Y-78694450D01*
X135082798Y-78536488D01*
X135051746Y-78472642D01*
X135060141Y-78402143D01*
X135105317Y-78347375D01*
X135131761Y-78333706D01*
X135238297Y-78293767D01*
X135246705Y-78290615D01*
X135363261Y-78203261D01*
X135450615Y-78086705D01*
X135501745Y-77950316D01*
X135508500Y-77888134D01*
X135508500Y-76091866D01*
X135501745Y-76029684D01*
X135450615Y-75893295D01*
X135363261Y-75776739D01*
X135246705Y-75689385D01*
X135110316Y-75638255D01*
X135048134Y-75631500D01*
X133251866Y-75631500D01*
X133189684Y-75638255D01*
X133053295Y-75689385D01*
X132936739Y-75776739D01*
X132849385Y-75893295D01*
X132798255Y-76029684D01*
X132791500Y-76091866D01*
X132791500Y-77888134D01*
X132798255Y-77950316D01*
X132849385Y-78086705D01*
X132936739Y-78203261D01*
X133053295Y-78290615D01*
X133061704Y-78293767D01*
X133061705Y-78293768D01*
X133170451Y-78334535D01*
X133227216Y-78377176D01*
X133251916Y-78443738D01*
X133236709Y-78513087D01*
X133217316Y-78539568D01*
X133090629Y-78672138D01*
X132964743Y-78856680D01*
X132870688Y-79059305D01*
X132810989Y-79274570D01*
X132787251Y-79496695D01*
X132787548Y-79501848D01*
X132787548Y-79501851D01*
X132793011Y-79596590D01*
X132800110Y-79719715D01*
X132801247Y-79724761D01*
X132801248Y-79724767D01*
X132821119Y-79812939D01*
X132849222Y-79937639D01*
X132933266Y-80144616D01*
X133049987Y-80335088D01*
X133196250Y-80503938D01*
X133345985Y-80628250D01*
X133385620Y-80687152D01*
X133391500Y-80725194D01*
X133391500Y-98225500D01*
X133371498Y-98293621D01*
X133317842Y-98340114D01*
X133265500Y-98351500D01*
X130290683Y-98351500D01*
X130222562Y-98331498D01*
X130198984Y-98310145D01*
X130198478Y-98310652D01*
X130113177Y-98225500D01*
X130073303Y-98185695D01*
X129994802Y-98137306D01*
X129928968Y-98096725D01*
X129928966Y-98096724D01*
X129922738Y-98092885D01*
X129762254Y-98039655D01*
X129761389Y-98039368D01*
X129761387Y-98039368D01*
X129754861Y-98037203D01*
X129748025Y-98036503D01*
X129748022Y-98036502D01*
X129704969Y-98032091D01*
X129650400Y-98026500D01*
X128649600Y-98026500D01*
X128646354Y-98026837D01*
X128646350Y-98026837D01*
X128550692Y-98036762D01*
X128550688Y-98036763D01*
X128543834Y-98037474D01*
X128537298Y-98039655D01*
X128537296Y-98039655D01*
X128405194Y-98083728D01*
X128376054Y-98093450D01*
X128225652Y-98186522D01*
X128100695Y-98311697D01*
X128096855Y-98317927D01*
X128096854Y-98317928D01*
X128019376Y-98443621D01*
X128007885Y-98462262D01*
X127952203Y-98630139D01*
X127941500Y-98734600D01*
X127941500Y-99485400D01*
X122368500Y-99485400D01*
X122368500Y-98009366D01*
X122361745Y-97947184D01*
X122310615Y-97810795D01*
X122223261Y-97694239D01*
X122106705Y-97606885D01*
X121970316Y-97555755D01*
X121908134Y-97549000D01*
X120111866Y-97549000D01*
X120049684Y-97555755D01*
X119913295Y-97606885D01*
X119796739Y-97694239D01*
X119709385Y-97810795D01*
X119658255Y-97947184D01*
X119651500Y-98009366D01*
X119651500Y-98023000D01*
X119631498Y-98091121D01*
X119577842Y-98137614D01*
X119525500Y-98149000D01*
X116894500Y-98149000D01*
X116826379Y-98128998D01*
X116779886Y-98075342D01*
X116768500Y-98023000D01*
X116768500Y-80722632D01*
X116788502Y-80654511D01*
X116821331Y-80620054D01*
X116889860Y-80571173D01*
X117048096Y-80413489D01*
X117107594Y-80330689D01*
X117175435Y-80236277D01*
X117178453Y-80232077D01*
X117277430Y-80031811D01*
X117342370Y-79818069D01*
X117371529Y-79596590D01*
X117373156Y-79530000D01*
X117354852Y-79307361D01*
X117300431Y-79090702D01*
X117211354Y-78885840D01*
X117090014Y-78698277D01*
X117086532Y-78694450D01*
X116942798Y-78536488D01*
X116911746Y-78472642D01*
X116920141Y-78402143D01*
X116965317Y-78347375D01*
X116991761Y-78333706D01*
X117098297Y-78293767D01*
X117106705Y-78290615D01*
X117223261Y-78203261D01*
X117310615Y-78086705D01*
X117361745Y-77950316D01*
X117368500Y-77888134D01*
X117368500Y-76091866D01*
X117361745Y-76029684D01*
X117310615Y-75893295D01*
X117223261Y-75776739D01*
X117106705Y-75689385D01*
X116970316Y-75638255D01*
X116908134Y-75631500D01*
X115111866Y-75631500D01*
X115049684Y-75638255D01*
X114913295Y-75689385D01*
X114796739Y-75776739D01*
X114709385Y-75893295D01*
X114658255Y-76029684D01*
X114651500Y-76091866D01*
X114651500Y-77888134D01*
X114658255Y-77950316D01*
X114709385Y-78086705D01*
X114796739Y-78203261D01*
X114913295Y-78290615D01*
X114921704Y-78293767D01*
X114921705Y-78293768D01*
X115030451Y-78334535D01*
X115087216Y-78377176D01*
X115111916Y-78443738D01*
X115096709Y-78513087D01*
X115077316Y-78539568D01*
X114950629Y-78672138D01*
X114824743Y-78856680D01*
X114730688Y-79059305D01*
X114670989Y-79274570D01*
X114647251Y-79496695D01*
X114647548Y-79501848D01*
X114647548Y-79501851D01*
X114653011Y-79596590D01*
X114660110Y-79719715D01*
X114661247Y-79724761D01*
X114661248Y-79724767D01*
X114681119Y-79812939D01*
X114709222Y-79937639D01*
X114793266Y-80144616D01*
X114909987Y-80335088D01*
X115056250Y-80503938D01*
X115205985Y-80628250D01*
X115245620Y-80687152D01*
X115251500Y-80725194D01*
X115251500Y-98375500D01*
X115231498Y-98443621D01*
X115177842Y-98490114D01*
X115125500Y-98501500D01*
X112246781Y-98501500D01*
X112178660Y-98481498D01*
X112139637Y-98441803D01*
X112083878Y-98351697D01*
X112058478Y-98310652D01*
X111933303Y-98185695D01*
X111854802Y-98137306D01*
X111788968Y-98096725D01*
X111788966Y-98096724D01*
X111782738Y-98092885D01*
X111622254Y-98039655D01*
X111621389Y-98039368D01*
X111621387Y-98039368D01*
X111614861Y-98037203D01*
X111608025Y-98036503D01*
X111608022Y-98036502D01*
X111564969Y-98032091D01*
X111510400Y-98026500D01*
X110509600Y-98026500D01*
X110506354Y-98026837D01*
X110506350Y-98026837D01*
X110410692Y-98036762D01*
X110410688Y-98036763D01*
X110403834Y-98037474D01*
X110397298Y-98039655D01*
X110397296Y-98039655D01*
X110265194Y-98083728D01*
X110236054Y-98093450D01*
X110085652Y-98186522D01*
X109960695Y-98311697D01*
X109956855Y-98317927D01*
X109956854Y-98317928D01*
X109879376Y-98443621D01*
X109867885Y-98462262D01*
X109812203Y-98630139D01*
X109801500Y-98734600D01*
X109801500Y-99485400D01*
X108828500Y-99485400D01*
X108828500Y-66287966D01*
X198648257Y-66287966D01*
X198678565Y-66422446D01*
X198681645Y-66432275D01*
X198761770Y-66629603D01*
X198766413Y-66638794D01*
X198877694Y-66820388D01*
X198883777Y-66828699D01*
X199023213Y-66989667D01*
X199030580Y-66996883D01*
X199194434Y-67132916D01*
X199202881Y-67138831D01*
X199386756Y-67246279D01*
X199396042Y-67250729D01*
X199595001Y-67326703D01*
X199604899Y-67329579D01*
X199708250Y-67350606D01*
X199722299Y-67349410D01*
X199726000Y-67339065D01*
X199726000Y-67338517D01*
X200234000Y-67338517D01*
X200238064Y-67352359D01*
X200251478Y-67354393D01*
X200258184Y-67353534D01*
X200268262Y-67351392D01*
X200472255Y-67290191D01*
X200481842Y-67286433D01*
X200673095Y-67192739D01*
X200681945Y-67187464D01*
X200855328Y-67063792D01*
X200863200Y-67057139D01*
X201014052Y-66906812D01*
X201020730Y-66898965D01*
X201145003Y-66726020D01*
X201150313Y-66717183D01*
X201244670Y-66526267D01*
X201248469Y-66516672D01*
X201310377Y-66312910D01*
X201312555Y-66302837D01*
X201313986Y-66291962D01*
X201311775Y-66277778D01*
X201298617Y-66274000D01*
X200252115Y-66274000D01*
X200236876Y-66278475D01*
X200235671Y-66279865D01*
X200234000Y-66287548D01*
X200234000Y-67338517D01*
X199726000Y-67338517D01*
X199726000Y-66292115D01*
X199721525Y-66276876D01*
X199720135Y-66275671D01*
X199712452Y-66274000D01*
X198663225Y-66274000D01*
X198649694Y-66277973D01*
X198648257Y-66287966D01*
X108828500Y-66287966D01*
X108828500Y-64496695D01*
X114647251Y-64496695D01*
X114647548Y-64501848D01*
X114647548Y-64501851D01*
X114653011Y-64596590D01*
X114660110Y-64719715D01*
X114661247Y-64724761D01*
X114661248Y-64724767D01*
X114674545Y-64783767D01*
X114709222Y-64937639D01*
X114793266Y-65144616D01*
X114909987Y-65335088D01*
X115056250Y-65503938D01*
X115228126Y-65646632D01*
X115421000Y-65759338D01*
X115425825Y-65761180D01*
X115425826Y-65761181D01*
X115438446Y-65766000D01*
X115629692Y-65839030D01*
X115634760Y-65840061D01*
X115634763Y-65840062D01*
X115742017Y-65861883D01*
X115848597Y-65883567D01*
X115853772Y-65883757D01*
X115853774Y-65883757D01*
X116066673Y-65891564D01*
X116066677Y-65891564D01*
X116071837Y-65891753D01*
X116076957Y-65891097D01*
X116076959Y-65891097D01*
X116288288Y-65864025D01*
X116288289Y-65864025D01*
X116293416Y-65863368D01*
X116298366Y-65861883D01*
X116502429Y-65800661D01*
X116502434Y-65800659D01*
X116507384Y-65799174D01*
X116707994Y-65700896D01*
X116889860Y-65571173D01*
X116906622Y-65554470D01*
X117044435Y-65417137D01*
X117048096Y-65413489D01*
X117099000Y-65342649D01*
X117175435Y-65236277D01*
X117178453Y-65232077D01*
X117277430Y-65031811D01*
X117338215Y-64831745D01*
X117340865Y-64823023D01*
X117340865Y-64823021D01*
X117342370Y-64818069D01*
X117371529Y-64596590D01*
X117373156Y-64530000D01*
X117354852Y-64307361D01*
X117300431Y-64090702D01*
X117211354Y-63885840D01*
X117090014Y-63698277D01*
X117086532Y-63694450D01*
X116942798Y-63536488D01*
X116911746Y-63472642D01*
X116920141Y-63402143D01*
X116965317Y-63347375D01*
X116991761Y-63333706D01*
X117098297Y-63293767D01*
X117106705Y-63290615D01*
X117223261Y-63203261D01*
X117310615Y-63086705D01*
X117361745Y-62950316D01*
X117368500Y-62888134D01*
X117368500Y-62874500D01*
X117388502Y-62806379D01*
X117442158Y-62759886D01*
X117494500Y-62748500D01*
X132665500Y-62748500D01*
X132733621Y-62768502D01*
X132780114Y-62822158D01*
X132791500Y-62874500D01*
X132791500Y-62888134D01*
X132798255Y-62950316D01*
X132849385Y-63086705D01*
X132936739Y-63203261D01*
X133053295Y-63290615D01*
X133061704Y-63293767D01*
X133061705Y-63293768D01*
X133170451Y-63334535D01*
X133227216Y-63377176D01*
X133251916Y-63443738D01*
X133236709Y-63513087D01*
X133217316Y-63539568D01*
X133090629Y-63672138D01*
X132964743Y-63856680D01*
X132949003Y-63890590D01*
X132880418Y-64038344D01*
X132870688Y-64059305D01*
X132810989Y-64274570D01*
X132787251Y-64496695D01*
X132787548Y-64501848D01*
X132787548Y-64501851D01*
X132793011Y-64596590D01*
X132800110Y-64719715D01*
X132801247Y-64724761D01*
X132801248Y-64724767D01*
X132814545Y-64783767D01*
X132849222Y-64937639D01*
X132933266Y-65144616D01*
X133049987Y-65335088D01*
X133196250Y-65503938D01*
X133368126Y-65646632D01*
X133561000Y-65759338D01*
X133565825Y-65761180D01*
X133565826Y-65761181D01*
X133578446Y-65766000D01*
X133769692Y-65839030D01*
X133774760Y-65840061D01*
X133774763Y-65840062D01*
X133882017Y-65861883D01*
X133988597Y-65883567D01*
X133993772Y-65883757D01*
X133993774Y-65883757D01*
X134206673Y-65891564D01*
X134206677Y-65891564D01*
X134211837Y-65891753D01*
X134216957Y-65891097D01*
X134216959Y-65891097D01*
X134428288Y-65864025D01*
X134428289Y-65864025D01*
X134433416Y-65863368D01*
X134438366Y-65861883D01*
X134642429Y-65800661D01*
X134642434Y-65800659D01*
X134647384Y-65799174D01*
X134847994Y-65700896D01*
X135029860Y-65571173D01*
X135046622Y-65554470D01*
X135184435Y-65417137D01*
X135188096Y-65413489D01*
X135239000Y-65342649D01*
X135315435Y-65236277D01*
X135318453Y-65232077D01*
X135417430Y-65031811D01*
X135478215Y-64831745D01*
X135480865Y-64823023D01*
X135480865Y-64823021D01*
X135482370Y-64818069D01*
X135511529Y-64596590D01*
X135513156Y-64530000D01*
X135494852Y-64307361D01*
X135440431Y-64090702D01*
X135351354Y-63885840D01*
X135230014Y-63698277D01*
X135226532Y-63694450D01*
X135082798Y-63536488D01*
X135051746Y-63472642D01*
X135060141Y-63402143D01*
X135105317Y-63347375D01*
X135131761Y-63333706D01*
X135238297Y-63293767D01*
X135246705Y-63290615D01*
X135363261Y-63203261D01*
X135450615Y-63086705D01*
X135501745Y-62950316D01*
X135508500Y-62888134D01*
X135508500Y-62874500D01*
X135528502Y-62806379D01*
X135582158Y-62759886D01*
X135634500Y-62748500D01*
X150805500Y-62748500D01*
X150873621Y-62768502D01*
X150920114Y-62822158D01*
X150931500Y-62874500D01*
X150931500Y-62888134D01*
X150938255Y-62950316D01*
X150989385Y-63086705D01*
X151076739Y-63203261D01*
X151193295Y-63290615D01*
X151201704Y-63293767D01*
X151201705Y-63293768D01*
X151310451Y-63334535D01*
X151367216Y-63377176D01*
X151391916Y-63443738D01*
X151376709Y-63513087D01*
X151357316Y-63539568D01*
X151230629Y-63672138D01*
X151104743Y-63856680D01*
X151089003Y-63890590D01*
X151020418Y-64038344D01*
X151010688Y-64059305D01*
X150950989Y-64274570D01*
X150927251Y-64496695D01*
X150927548Y-64501848D01*
X150927548Y-64501851D01*
X150933011Y-64596590D01*
X150940110Y-64719715D01*
X150941247Y-64724761D01*
X150941248Y-64724767D01*
X150954545Y-64783767D01*
X150989222Y-64937639D01*
X151073266Y-65144616D01*
X151189987Y-65335088D01*
X151336250Y-65503938D01*
X151508126Y-65646632D01*
X151701000Y-65759338D01*
X151705825Y-65761180D01*
X151705826Y-65761181D01*
X151718446Y-65766000D01*
X151909692Y-65839030D01*
X151914760Y-65840061D01*
X151914763Y-65840062D01*
X152022017Y-65861883D01*
X152128597Y-65883567D01*
X152133772Y-65883757D01*
X152133774Y-65883757D01*
X152346673Y-65891564D01*
X152346677Y-65891564D01*
X152351837Y-65891753D01*
X152356957Y-65891097D01*
X152356959Y-65891097D01*
X152568288Y-65864025D01*
X152568289Y-65864025D01*
X152573416Y-65863368D01*
X152578366Y-65861883D01*
X152782429Y-65800661D01*
X152782434Y-65800659D01*
X152787384Y-65799174D01*
X152987994Y-65700896D01*
X153169860Y-65571173D01*
X153186622Y-65554470D01*
X153324435Y-65417137D01*
X153328096Y-65413489D01*
X153379000Y-65342649D01*
X153455435Y-65236277D01*
X153458453Y-65232077D01*
X153557430Y-65031811D01*
X153618215Y-64831745D01*
X153620865Y-64823023D01*
X153620865Y-64823021D01*
X153622370Y-64818069D01*
X153651529Y-64596590D01*
X153653156Y-64530000D01*
X153634852Y-64307361D01*
X153580431Y-64090702D01*
X153491354Y-63885840D01*
X153370014Y-63698277D01*
X153366532Y-63694450D01*
X153222798Y-63536488D01*
X153191746Y-63472642D01*
X153200141Y-63402143D01*
X153245317Y-63347375D01*
X153271761Y-63333706D01*
X153378297Y-63293767D01*
X153386705Y-63290615D01*
X153503261Y-63203261D01*
X153590615Y-63086705D01*
X153641745Y-62950316D01*
X153648500Y-62888134D01*
X153648500Y-62874500D01*
X153668502Y-62806379D01*
X153722158Y-62759886D01*
X153774500Y-62748500D01*
X168945500Y-62748500D01*
X169013621Y-62768502D01*
X169060114Y-62822158D01*
X169071500Y-62874500D01*
X169071500Y-62888134D01*
X169078255Y-62950316D01*
X169129385Y-63086705D01*
X169216739Y-63203261D01*
X169333295Y-63290615D01*
X169341704Y-63293767D01*
X169341705Y-63293768D01*
X169450451Y-63334535D01*
X169507216Y-63377176D01*
X169531916Y-63443738D01*
X169516709Y-63513087D01*
X169497316Y-63539568D01*
X169370629Y-63672138D01*
X169244743Y-63856680D01*
X169229003Y-63890590D01*
X169160418Y-64038344D01*
X169150688Y-64059305D01*
X169090989Y-64274570D01*
X169067251Y-64496695D01*
X169067548Y-64501848D01*
X169067548Y-64501851D01*
X169073011Y-64596590D01*
X169080110Y-64719715D01*
X169081247Y-64724761D01*
X169081248Y-64724767D01*
X169094545Y-64783767D01*
X169129222Y-64937639D01*
X169213266Y-65144616D01*
X169329987Y-65335088D01*
X169476250Y-65503938D01*
X169648126Y-65646632D01*
X169841000Y-65759338D01*
X169845825Y-65761180D01*
X169845826Y-65761181D01*
X169858446Y-65766000D01*
X170049692Y-65839030D01*
X170054760Y-65840061D01*
X170054763Y-65840062D01*
X170162017Y-65861883D01*
X170268597Y-65883567D01*
X170273772Y-65883757D01*
X170273774Y-65883757D01*
X170486673Y-65891564D01*
X170486677Y-65891564D01*
X170491837Y-65891753D01*
X170496957Y-65891097D01*
X170496959Y-65891097D01*
X170708288Y-65864025D01*
X170708289Y-65864025D01*
X170713416Y-65863368D01*
X170718366Y-65861883D01*
X170922429Y-65800661D01*
X170922434Y-65800659D01*
X170927384Y-65799174D01*
X171127994Y-65700896D01*
X171309860Y-65571173D01*
X171326622Y-65554470D01*
X171464435Y-65417137D01*
X171468096Y-65413489D01*
X171519000Y-65342649D01*
X171595435Y-65236277D01*
X171598453Y-65232077D01*
X171697430Y-65031811D01*
X171758215Y-64831745D01*
X171760865Y-64823023D01*
X171760865Y-64823021D01*
X171762370Y-64818069D01*
X171791529Y-64596590D01*
X171793156Y-64530000D01*
X171774852Y-64307361D01*
X171720431Y-64090702D01*
X171631354Y-63885840D01*
X171510014Y-63698277D01*
X171506532Y-63694450D01*
X171362798Y-63536488D01*
X171331746Y-63472642D01*
X171340141Y-63402143D01*
X171385317Y-63347375D01*
X171411761Y-63333706D01*
X171518297Y-63293767D01*
X171526705Y-63290615D01*
X171643261Y-63203261D01*
X171730615Y-63086705D01*
X171781745Y-62950316D01*
X171788500Y-62888134D01*
X171788500Y-62874500D01*
X171808502Y-62806379D01*
X171862158Y-62759886D01*
X171914500Y-62748500D01*
X187085500Y-62748500D01*
X187153621Y-62768502D01*
X187200114Y-62822158D01*
X187211500Y-62874500D01*
X187211500Y-62888134D01*
X187218255Y-62950316D01*
X187269385Y-63086705D01*
X187356739Y-63203261D01*
X187473295Y-63290615D01*
X187481704Y-63293767D01*
X187481705Y-63293768D01*
X187590451Y-63334535D01*
X187647216Y-63377176D01*
X187671916Y-63443738D01*
X187656709Y-63513087D01*
X187637316Y-63539568D01*
X187510629Y-63672138D01*
X187384743Y-63856680D01*
X187369003Y-63890590D01*
X187300418Y-64038344D01*
X187290688Y-64059305D01*
X187230989Y-64274570D01*
X187207251Y-64496695D01*
X187207548Y-64501848D01*
X187207548Y-64501851D01*
X187213011Y-64596590D01*
X187220110Y-64719715D01*
X187221247Y-64724761D01*
X187221248Y-64724767D01*
X187234545Y-64783767D01*
X187269222Y-64937639D01*
X187353266Y-65144616D01*
X187469987Y-65335088D01*
X187616250Y-65503938D01*
X187788126Y-65646632D01*
X187981000Y-65759338D01*
X187985825Y-65761180D01*
X187985826Y-65761181D01*
X187998446Y-65766000D01*
X188189692Y-65839030D01*
X188194760Y-65840061D01*
X188194763Y-65840062D01*
X188302017Y-65861883D01*
X188408597Y-65883567D01*
X188413772Y-65883757D01*
X188413774Y-65883757D01*
X188626673Y-65891564D01*
X188626677Y-65891564D01*
X188631837Y-65891753D01*
X188636957Y-65891097D01*
X188636959Y-65891097D01*
X188848288Y-65864025D01*
X188848289Y-65864025D01*
X188853416Y-65863368D01*
X188858366Y-65861883D01*
X189062429Y-65800661D01*
X189062434Y-65800659D01*
X189067384Y-65799174D01*
X189267994Y-65700896D01*
X189449860Y-65571173D01*
X189466622Y-65554470D01*
X189604435Y-65417137D01*
X189608096Y-65413489D01*
X189659000Y-65342649D01*
X189735435Y-65236277D01*
X189738453Y-65232077D01*
X189837430Y-65031811D01*
X189898215Y-64831745D01*
X189900865Y-64823023D01*
X189900865Y-64823021D01*
X189902370Y-64818069D01*
X189931529Y-64596590D01*
X189933156Y-64530000D01*
X189914852Y-64307361D01*
X189860431Y-64090702D01*
X189771354Y-63885840D01*
X189650014Y-63698277D01*
X189646532Y-63694450D01*
X189502798Y-63536488D01*
X189471746Y-63472642D01*
X189480141Y-63402143D01*
X189525317Y-63347375D01*
X189551761Y-63333706D01*
X189658297Y-63293767D01*
X189666705Y-63290615D01*
X189783261Y-63203261D01*
X189870615Y-63086705D01*
X189921745Y-62950316D01*
X189928500Y-62888134D01*
X189928500Y-62874500D01*
X189948502Y-62806379D01*
X190002158Y-62759886D01*
X190054500Y-62748500D01*
X193453629Y-62748500D01*
X193521750Y-62768502D01*
X193542724Y-62785405D01*
X194726230Y-63968911D01*
X194738616Y-63983323D01*
X194747149Y-63994918D01*
X194747154Y-63994923D01*
X194751492Y-64000818D01*
X194757070Y-64005557D01*
X194757073Y-64005560D01*
X194791768Y-64035035D01*
X194799284Y-64041965D01*
X194804979Y-64047660D01*
X194807861Y-64049940D01*
X194827251Y-64065281D01*
X194830655Y-64068072D01*
X194863199Y-64095720D01*
X194886285Y-64115333D01*
X194892801Y-64118661D01*
X194897850Y-64122028D01*
X194902979Y-64125195D01*
X194908716Y-64129734D01*
X194974875Y-64160655D01*
X194978769Y-64162558D01*
X195043808Y-64195769D01*
X195050916Y-64197508D01*
X195056559Y-64199607D01*
X195062322Y-64201524D01*
X195068950Y-64204622D01*
X195076112Y-64206112D01*
X195076113Y-64206112D01*
X195140412Y-64219486D01*
X195144696Y-64220456D01*
X195215610Y-64237808D01*
X195221212Y-64238156D01*
X195221215Y-64238156D01*
X195226764Y-64238500D01*
X195226762Y-64238536D01*
X195230755Y-64238775D01*
X195234947Y-64239149D01*
X195242115Y-64240640D01*
X195319520Y-64238546D01*
X195322928Y-64238500D01*
X198495500Y-64238500D01*
X198563621Y-64258502D01*
X198610114Y-64312158D01*
X198621500Y-64364500D01*
X198621500Y-64378134D01*
X198628255Y-64440316D01*
X198679385Y-64576705D01*
X198766739Y-64693261D01*
X198883295Y-64780615D01*
X198891704Y-64783767D01*
X198891705Y-64783768D01*
X199000960Y-64824726D01*
X199057725Y-64867367D01*
X199082425Y-64933929D01*
X199067218Y-65003278D01*
X199047825Y-65029759D01*
X198924590Y-65158717D01*
X198918104Y-65166727D01*
X198798098Y-65342649D01*
X198793000Y-65351623D01*
X198703338Y-65544783D01*
X198699775Y-65554470D01*
X198644389Y-65754183D01*
X198645912Y-65762607D01*
X198658292Y-65766000D01*
X201298344Y-65766000D01*
X201311875Y-65762027D01*
X201313180Y-65752947D01*
X201271214Y-65585875D01*
X201267894Y-65576124D01*
X201182972Y-65380814D01*
X201178105Y-65371739D01*
X201062426Y-65192926D01*
X201056136Y-65184757D01*
X200912293Y-65026677D01*
X200881241Y-64962831D01*
X200889635Y-64892333D01*
X200934812Y-64837564D01*
X200961256Y-64823895D01*
X201068297Y-64783767D01*
X201076705Y-64780615D01*
X201193261Y-64693261D01*
X201280615Y-64576705D01*
X201331745Y-64440316D01*
X201338500Y-64378134D01*
X201338500Y-62581866D01*
X201331745Y-62519684D01*
X201280615Y-62383295D01*
X201193261Y-62266739D01*
X201076705Y-62179385D01*
X200940316Y-62128255D01*
X200878134Y-62121500D01*
X199081866Y-62121500D01*
X199019684Y-62128255D01*
X198883295Y-62179385D01*
X198766739Y-62266739D01*
X198679385Y-62383295D01*
X198628255Y-62519684D01*
X198621500Y-62581866D01*
X198621500Y-62595500D01*
X198601498Y-62663621D01*
X198547842Y-62710114D01*
X198495500Y-62721500D01*
X195676371Y-62721500D01*
X195608250Y-62701498D01*
X195587276Y-62684595D01*
X194403770Y-61501089D01*
X194391384Y-61486677D01*
X194382851Y-61475082D01*
X194382846Y-61475077D01*
X194378508Y-61469182D01*
X194372930Y-61464443D01*
X194372927Y-61464440D01*
X194338232Y-61434965D01*
X194330716Y-61428035D01*
X194325021Y-61422340D01*
X194318880Y-61417482D01*
X194302749Y-61404719D01*
X194299345Y-61401928D01*
X194249297Y-61359409D01*
X194249295Y-61359408D01*
X194243715Y-61354667D01*
X194237199Y-61351339D01*
X194232150Y-61347972D01*
X194227021Y-61344805D01*
X194221284Y-61340266D01*
X194155125Y-61309345D01*
X194151225Y-61307439D01*
X194086192Y-61274231D01*
X194079084Y-61272492D01*
X194073441Y-61270393D01*
X194067678Y-61268476D01*
X194061050Y-61265378D01*
X193989583Y-61250513D01*
X193985299Y-61249543D01*
X193914390Y-61232192D01*
X193908788Y-61231844D01*
X193908785Y-61231844D01*
X193903236Y-61231500D01*
X193903238Y-61231464D01*
X193899245Y-61231225D01*
X193895053Y-61230851D01*
X193887885Y-61229360D01*
X193821675Y-61231151D01*
X193810479Y-61231454D01*
X193807072Y-61231500D01*
X190054500Y-61231500D01*
X189986379Y-61211498D01*
X189939886Y-61157842D01*
X189928500Y-61105500D01*
X189928500Y-61091866D01*
X189921745Y-61029684D01*
X189870615Y-60893295D01*
X189783261Y-60776739D01*
X189666705Y-60689385D01*
X189530316Y-60638255D01*
X189468134Y-60631500D01*
X187671866Y-60631500D01*
X187609684Y-60638255D01*
X187473295Y-60689385D01*
X187356739Y-60776739D01*
X187269385Y-60893295D01*
X187218255Y-61029684D01*
X187211500Y-61091866D01*
X187211500Y-61105500D01*
X187191498Y-61173621D01*
X187137842Y-61220114D01*
X187085500Y-61231500D01*
X171914500Y-61231500D01*
X171846379Y-61211498D01*
X171799886Y-61157842D01*
X171788500Y-61105500D01*
X171788500Y-61091866D01*
X171781745Y-61029684D01*
X171730615Y-60893295D01*
X171643261Y-60776739D01*
X171526705Y-60689385D01*
X171390316Y-60638255D01*
X171328134Y-60631500D01*
X169531866Y-60631500D01*
X169469684Y-60638255D01*
X169333295Y-60689385D01*
X169216739Y-60776739D01*
X169129385Y-60893295D01*
X169078255Y-61029684D01*
X169071500Y-61091866D01*
X169071500Y-61105500D01*
X169051498Y-61173621D01*
X168997842Y-61220114D01*
X168945500Y-61231500D01*
X153774500Y-61231500D01*
X153706379Y-61211498D01*
X153659886Y-61157842D01*
X153648500Y-61105500D01*
X153648500Y-61091866D01*
X153641745Y-61029684D01*
X153590615Y-60893295D01*
X153503261Y-60776739D01*
X153386705Y-60689385D01*
X153250316Y-60638255D01*
X153188134Y-60631500D01*
X151391866Y-60631500D01*
X151329684Y-60638255D01*
X151193295Y-60689385D01*
X151076739Y-60776739D01*
X150989385Y-60893295D01*
X150938255Y-61029684D01*
X150931500Y-61091866D01*
X150931500Y-61105500D01*
X150911498Y-61173621D01*
X150857842Y-61220114D01*
X150805500Y-61231500D01*
X135634500Y-61231500D01*
X135566379Y-61211498D01*
X135519886Y-61157842D01*
X135508500Y-61105500D01*
X135508500Y-61091866D01*
X135501745Y-61029684D01*
X135450615Y-60893295D01*
X135363261Y-60776739D01*
X135246705Y-60689385D01*
X135110316Y-60638255D01*
X135048134Y-60631500D01*
X133251866Y-60631500D01*
X133189684Y-60638255D01*
X133053295Y-60689385D01*
X132936739Y-60776739D01*
X132849385Y-60893295D01*
X132798255Y-61029684D01*
X132791500Y-61091866D01*
X132791500Y-61105500D01*
X132771498Y-61173621D01*
X132717842Y-61220114D01*
X132665500Y-61231500D01*
X117494500Y-61231500D01*
X117426379Y-61211498D01*
X117379886Y-61157842D01*
X117368500Y-61105500D01*
X117368500Y-61091866D01*
X117361745Y-61029684D01*
X117310615Y-60893295D01*
X117223261Y-60776739D01*
X117106705Y-60689385D01*
X116970316Y-60638255D01*
X116908134Y-60631500D01*
X115111866Y-60631500D01*
X115049684Y-60638255D01*
X114913295Y-60689385D01*
X114796739Y-60776739D01*
X114709385Y-60893295D01*
X114658255Y-61029684D01*
X114651500Y-61091866D01*
X114651500Y-62888134D01*
X114658255Y-62950316D01*
X114709385Y-63086705D01*
X114796739Y-63203261D01*
X114913295Y-63290615D01*
X114921704Y-63293767D01*
X114921705Y-63293768D01*
X115030451Y-63334535D01*
X115087216Y-63377176D01*
X115111916Y-63443738D01*
X115096709Y-63513087D01*
X115077316Y-63539568D01*
X114950629Y-63672138D01*
X114824743Y-63856680D01*
X114809003Y-63890590D01*
X114740418Y-64038344D01*
X114730688Y-64059305D01*
X114670989Y-64274570D01*
X114647251Y-64496695D01*
X108828500Y-64496695D01*
X108828500Y-56809500D01*
X108848502Y-56741379D01*
X108902158Y-56694886D01*
X108954500Y-56683500D01*
X204165500Y-56683500D01*
X204233621Y-56703502D01*
G37*
%TD.AperFunction*%
%TD*%
M02*
